<svg width="448" height="358" viewBox="0 0 448 358" fill="none" xmlns="http://www.w3.org/2000/svg">
<rect width="448" height="358" rx="5" fill="url(#paint0_linear_1_4237)"/>
<mask id="mask0_1_4237" style="mask-type:alpha" maskUnits="userSpaceOnUse" x="0" y="0" width="448" height="358">
<rect width="448" height="358" rx="5" fill="url(#paint1_linear_1_4237)"/>
</mask>
<g mask="url(#mask0_1_4237)">
<path d="M368.912 -183.438C370.258 -182.879 371.54 -182.228 372.864 -181.56L374.553 -180.713C379.126 -178.473 383.878 -174.581 388.067 -171.149L390.016 -169.575C391.78 -168.087 393.457 -166.498 395.037 -164.815C395.638 -164.183 396.248 -163.571 396.862 -162.961C410.522 -149.417 422.566 -141.938 437.143 -137.967C440.879 -136.949 444.531 -136.539 448.392 -136.107L448.91 -136.049C453.311 -135.557 459.779 -134.683 465.139 -132.789C466.376 -132.355 467.602 -131.91 468.821 -131.469C474.715 -129.333 480.279 -127.315 486.477 -126.317L488.543 -125.99C492.395 -125.39 496.033 -124.818 499.79 -123.704C511.54 -120.208 519.73 -113.948 527.181 -102.774C530.264 -98.1514 531.962 -89.8377 531.992 -84.3524C532.025 -79.0871 531.056 -73.4057 529.112 -67.4683C528.115 -64.4148 526.817 -61.402 525.563 -58.4935C525.091 -57.3568 524.586 -56.2258 524.119 -55.1021L523.675 -54.0338C520.191 -45.6471 516.24 -36.1399 518.139 -27.0479C518.417 -25.8887 518.783 -24.7522 519.234 -23.6483C519.641 -22.6349 519.988 -21.5982 520.272 -20.5435C521.221 -16.7116 525.358 -13.4652 529.019 -10.5843C530.64 -9.36517 532.181 -8.04366 533.632 -6.6279C535.239 -4.97495 536.812 -3.30543 538.388 -1.63455L541.046 1.16919C543.822 4.06431 545.506 6.74611 546.506 9.85819C547.019 11.4576 547.594 13.0717 548.208 14.7668C550.174 20.3499 552.229 26.1195 552.271 31.7779C552.285 33.3647 552.39 35.0241 552.496 36.6266C552.723 40.093 552.952 43.6905 552.286 47.0878C551.91 48.9864 551.117 50.7731 550.354 52.4994C550.138 53.0205 549.895 53.5308 549.679 54.0519C548.508 56.8692 547.362 59.1772 545.65 61.3111C538.067 70.7834 530.72 75.7972 521.081 78.0783C517.815 78.8449 514.456 79.3588 511.204 79.8714C505.145 80.7915 498.871 81.7708 493.104 84.4543C490.731 85.5652 489.066 86.6647 488.172 88.7528C487.861 89.5019 487.548 90.2542 487.237 91.0033C487.01 91.5505 486.782 92.0977 486.56 92.6318C486.087 93.7718 485.613 94.9117 485.141 96.0484C484.138 98.4619 483.134 100.879 482.131 103.292C480.163 108.176 477.136 111.57 473.133 113.383C469.007 115.247 464.612 115.438 460.468 115.476C457.149 115.507 454.075 114.707 451.097 113.936C449.327 113.475 447.495 113 445.618 112.698C444.697 112.524 443.796 112.258 442.928 111.905C442.444 111.726 441.961 111.545 441.454 111.395C439.875 110.934 437.007 111.057 435.348 111.471C427.306 113.449 423.6 120.003 420.793 126.788L420.587 127.283C418.34 132.69 416.04 138.292 412.08 142.734C411.177 143.749 410.209 144.753 409.274 145.724C408.747 146.269 408.223 146.815 407.703 147.363C407.447 147.638 407.201 147.918 406.982 148.178C405.968 149.311 405.012 150.381 403.382 151.055C401.345 151.855 399.233 152.447 397.078 152.824C395.027 153.218 392.938 153.376 390.851 153.293C388.039 153.243 385.551 152.683 382.916 152.088C382.216 151.932 381.486 151.766 380.756 151.611C373.147 150.023 366.231 145.041 360.133 140.647L360.006 140.557C359.579 140.25 359.151 139.965 358.726 139.681C357.517 138.939 356.407 138.047 355.423 137.025C354.378 135.799 353.209 134.684 351.936 133.697C351.457 133.31 351.012 132.883 350.604 132.422C350.108 131.831 349.52 131.322 348.864 130.916C347.067 129.987 345.182 129.238 343.237 128.681C336.161 126.631 329.201 123.613 322.471 120.702C320.851 120.002 319.212 119.291 317.588 118.601C313.403 116.831 308.586 115.888 302.484 115.678C299.402 115.57 296.796 116.313 294.277 117.031C290.376 118.141 286.695 119.189 281.572 117.252C279.631 116.522 277.634 115.826 275.706 115.158C273.778 114.491 271.749 113.781 269.787 113.039C258.156 108.63 248.654 102.787 241.626 95.6814C235.152 89.1378 233.335 82.8139 231.241 75.4972C230.489 72.8928 229.718 70.1854 228.681 67.2989C228.371 66.4064 228.091 65.5261 227.811 64.6458C227.282 62.7735 226.589 60.9516 225.738 59.2015C224.269 56.3798 223.055 53.4155 221.882 50.5448C221.164 48.7952 220.424 46.9869 219.635 45.2344C217.446 40.3833 213.882 36.4962 210.431 32.7325C208.315 30.5056 206.322 28.1665 204.459 25.7253C204.009 25.1146 203.589 24.516 203.174 23.9313C201.707 21.8433 200.316 19.8717 198.184 18.1225C197.45 17.5158 196.723 16.9386 196.01 16.3715C192.352 13.4572 188.894 10.7028 186.538 6.11479C183.917 1.01549 182.843 -3.86105 181.705 -9.02407C181.307 -10.8244 180.902 -12.6844 180.413 -14.5986C178.895 -20.5764 179.906 -26.9281 181.091 -32.3478C181.816 -35.6559 183.048 -38.5929 184.346 -41.6895L184.4 -41.8198C184.768 -42.7057 185.118 -43.603 185.468 -44.5003C186.617 -47.46 187.795 -50.5071 189.793 -53.0689C196.532 -61.6728 204.521 -68.6922 212.892 -73.3724C224.846 -80.0655 234.557 -83.1422 244.35 -83.3624C247.867 -83.4286 250.218 -84.4605 251.321 -86.397C254.385 -91.7847 247.886 -103.308 243.586 -110.934C241.939 -113.853 240.641 -116.157 240.187 -117.537C239.135 -120.709 239.043 -124.123 238.947 -127.432L238.924 -128.206C238.644 -138.13 248.34 -147.656 256.13 -155.312C257.939 -157.089 259.649 -158.765 261.074 -160.3C262.289 -161.547 263.594 -162.704 264.978 -163.762C266.309 -164.775 267.567 -165.881 268.742 -167.071C270.657 -169.125 272.106 -170.57 274.62 -171.928C276.325 -172.891 277.968 -173.961 279.537 -175.132C281.198 -176.368 282.942 -177.49 284.755 -178.491C286.041 -179.167 287.318 -179.931 288.559 -180.672C290.523 -181.908 292.568 -183.011 294.681 -183.972C296.065 -184.543 297.381 -185.272 298.665 -185.96C299.948 -186.649 301.252 -187.349 302.622 -187.941C312.834 -192.344 319.825 -192.014 330.408 -191.512L332.235 -191.429C342.555 -190.96 351.774 -188.39 361.537 -185.678C363.02 -185.264 364.508 -184.852 366.011 -184.441C366.999 -184.171 367.968 -183.836 368.912 -183.438ZM427.338 -140.387C416.643 -144.83 406.932 -151.741 396.249 -162.333C395.63 -162.949 395.021 -163.573 394.409 -164.197C392.858 -165.855 391.211 -167.42 389.477 -168.886C388.845 -169.397 388.195 -169.93 387.525 -170.461C383.371 -173.867 378.663 -177.726 374.175 -179.923C373.6 -180.204 373.035 -180.492 372.479 -180.772C370.268 -181.89 368.208 -182.929 365.784 -183.592C364.279 -184.004 362.786 -184.417 361.307 -184.83C351.589 -187.531 342.416 -190.082 332.195 -190.552L330.368 -190.635C319.905 -191.129 312.993 -191.457 302.961 -187.128C301.619 -186.539 300.325 -185.855 299.071 -185.181C297.816 -184.506 296.428 -183.761 295.02 -183.159C292.944 -182.218 290.934 -181.139 289.003 -179.93C287.757 -179.184 286.463 -178.415 285.156 -177.709C283.382 -176.725 281.678 -175.621 280.053 -174.406C278.455 -173.212 276.781 -172.121 275.042 -171.141C272.64 -169.848 271.248 -168.448 269.385 -166.457C268.19 -165.242 266.911 -164.115 265.555 -163.083C264.203 -162.051 262.929 -160.921 261.743 -159.702C260.301 -158.154 258.587 -156.468 256.771 -154.683C249.099 -147.146 239.555 -137.774 239.825 -128.221L239.844 -127.449C239.931 -124.209 240.018 -120.857 241.023 -117.793C241.45 -116.493 242.798 -114.107 244.356 -111.344C248.76 -103.544 255.396 -91.7697 252.086 -85.9569C250.825 -83.7389 248.233 -82.5701 244.386 -82.4841C234.74 -82.2678 225.165 -79.2227 213.33 -72.606C205.059 -67.9801 197.158 -61.0348 190.491 -52.5229C188.564 -50.0657 187.404 -47.072 186.282 -44.1774C185.928 -43.2703 185.578 -42.3652 185.206 -41.4774L185.15 -41.3438C183.873 -38.2692 182.645 -35.3689 181.937 -32.1378C180.71 -26.5366 179.787 -20.5801 181.253 -14.7883C181.743 -12.8584 182.15 -10.978 182.552 -9.1842C183.676 -4.08033 184.74 0.746284 187.307 5.74658C189.582 10.1678 192.809 12.7421 196.543 15.7145C197.261 16.2876 197.977 16.8639 198.729 17.4742C200.947 19.3012 202.372 21.3178 203.887 23.4595C204.295 24.0415 204.713 24.6354 205.16 25.2416C207.005 27.6569 208.978 29.971 211.072 32.1739C214.569 35.9834 218.176 39.9229 220.42 44.8998C221.215 46.6662 221.963 48.4817 222.681 50.2392C223.848 53.0883 225.055 56.0341 226.508 58.8222C227.379 60.6136 228.092 62.4779 228.638 64.3937C228.912 65.2713 229.189 66.1502 229.505 67.0074C230.55 69.9203 231.326 72.6337 232.081 75.2616C234.144 82.4666 235.927 88.6996 242.247 95.08C249.181 102.09 258.572 107.859 270.11 112.233C272.062 112.972 274.07 113.669 276.008 114.34C277.946 115.012 279.946 115.709 281.895 116.446C286.738 118.275 290.29 117.261 294.044 116.193C296.641 115.462 299.298 114.698 302.518 114.806C308.727 115.022 313.627 115.962 317.928 117.799C319.558 118.476 321.172 119.192 322.815 119.902C329.521 122.806 336.456 125.81 343.48 127.847C345.484 128.42 347.426 129.193 349.277 130.152C350.024 130.6 350.692 131.168 351.254 131.833C351.63 132.259 352.04 132.653 352.481 133.011C353.795 134.031 355.002 135.183 356.083 136.448C357.022 137.421 358.083 138.27 359.238 138.973C359.673 139.261 360.11 139.553 360.545 139.868L360.671 139.958C366.703 144.302 373.536 149.226 380.968 150.779C381.703 150.931 382.423 151.093 383.139 151.257C385.729 151.84 388.176 152.391 390.9 152.439C392.922 152.517 394.945 152.364 396.931 151.981C399.03 151.612 401.086 151.036 403.07 150.261C404.515 149.662 405.366 148.71 406.351 147.607C406.598 147.327 406.847 147.049 407.106 146.775C407.625 146.226 408.153 145.682 408.681 145.137C409.61 144.171 410.57 143.176 411.465 142.173C415.327 137.835 417.608 132.309 419.818 126.964L420.017 126.485C422.922 119.492 426.75 112.726 435.166 110.658C436.941 110.223 439.951 110.072 441.718 110.592C442.247 110.747 442.75 110.933 443.254 111.12C444.068 111.453 444.914 111.704 445.778 111.871C447.698 112.18 449.543 112.671 451.339 113.123C454.395 113.919 457.28 114.667 460.486 114.632C464.538 114.594 468.831 114.41 472.794 112.608C476.587 110.896 479.465 107.657 481.347 102.981C482.325 100.554 483.335 98.1398 484.36 95.728C484.833 94.5913 485.308 93.4481 485.779 92.3146C486.005 91.7707 486.231 91.2268 486.455 90.6862C486.769 89.9305 487.083 89.1749 487.403 88.4063C488.515 85.8128 490.755 84.5973 492.765 83.6603C498.644 80.9279 504.979 79.9507 511.1 79.0073C514.299 78.53 517.642 78.0093 520.882 77.2397C530.317 75.003 537.536 70.0851 544.976 60.7714C546.618 58.7308 547.728 56.4649 548.881 53.7168C549.099 53.1925 549.319 52.6648 549.564 52.148C550.308 50.4674 551.081 48.7262 551.438 46.9191C552.086 43.6211 551.859 40.0931 551.63 36.6869C551.535 35.0773 551.416 33.4047 551.402 31.791C551.362 26.2748 549.336 20.5822 547.377 15.0746C546.768 13.3585 546.192 11.7366 545.673 10.1233C544.72 7.14554 543.099 4.56218 540.423 1.74703C539.535 0.817876 538.649 -0.116695 537.766 -1.05671C536.192 -2.72297 534.615 -4.39385 533.017 -6.03947C531.591 -7.42494 530.078 -8.71825 528.487 -9.91153C524.723 -12.8659 520.457 -16.2156 519.441 -20.3386C519.165 -21.3589 518.829 -22.362 518.434 -23.3427C517.966 -24.4875 517.587 -25.6665 517.3 -26.8693C515.337 -36.2288 519.353 -45.8766 522.885 -54.3662L523.327 -55.4312C523.798 -56.5647 524.275 -57.7111 524.775 -58.8324C526.022 -61.7246 527.312 -64.7179 528.298 -67.7342C530.212 -73.5842 531.166 -79.1728 531.136 -84.345C531.105 -89.7053 529.463 -97.7967 526.466 -102.285C519.042 -113.432 511.24 -119.393 499.551 -122.871C495.85 -123.973 492.24 -124.538 488.416 -125.133L486.347 -125.462C480.068 -126.475 474.461 -128.491 468.535 -130.652C467.316 -131.093 466.094 -131.536 464.857 -131.974C459.579 -133.834 453.177 -134.7 448.824 -135.198L448.309 -135.256C444.408 -135.692 440.73 -136.113 436.925 -137.14C433.664 -138.017 430.462 -139.102 427.338 -140.387Z" stroke="url(#paint2_linear_1_4237)" stroke-width="2" stroke-miterlimit="10"/>
</g>
<defs>
<linearGradient id="paint0_linear_1_4237" x1="181.5" y1="-30" x2="319.5" y2="420" gradientUnits="userSpaceOnUse">
<stop stop-color="#FFF1DC"/>
<stop offset="1" stop-color="#FFDBCB"/>
</linearGradient>
<linearGradient id="paint1_linear_1_4237" x1="136.5" y1="-13" x2="296" y2="370" gradientUnits="userSpaceOnUse">
<stop stop-color="#FFBB50"/>
<stop offset="1" stop-color="#EBA536" stop-opacity="0"/>
</linearGradient>
<linearGradient id="paint2_linear_1_4237" x1="314.801" y1="131.8" x2="434.467" y2="-156.201" gradientUnits="userSpaceOnUse">
<stop stop-color="#EAB196"/>
<stop offset="1" stop-color="#FFF0E9" stop-opacity="0"/>
</linearGradient>
</defs>
</svg>
