<svg width="448" height="358" viewBox="0 0 448 358" fill="none" xmlns="http://www.w3.org/2000/svg">
<rect width="448" height="358" rx="5" fill="url(#paint0_linear_1_4250)"/>
<mask id="mask0_1_4250" style="mask-type:alpha" maskUnits="userSpaceOnUse" x="0" y="0" width="448" height="358">
<rect width="448" height="358" rx="5" fill="url(#paint1_linear_1_4250)"/>
</mask>
<g mask="url(#mask0_1_4250)">
<path d="M519.008 186.35C514.538 185.153 510.109 183.011 505.82 180.933C505.109 180.591 504.408 180.247 503.714 179.919C492.296 174.472 480.23 168.295 469.292 160.057C463.977 156.058 459.116 152.574 453.408 150.459C449.132 148.874 444.971 146.996 440.948 145.186C432.717 141.466 424.936 137.967 415.955 136.555L412.383 135.982C409.636 135.534 406.797 135.071 404.005 134.712C395.581 133.616 386.617 134.062 377.955 134.493C374.092 134.685 370.097 134.881 366.228 134.925C364.121 134.999 362.02 135.191 359.935 135.501C357.251 135.853 354.474 136.214 351.711 136.05L351.469 136.03C346.577 135.729 341.537 135.419 336.858 133.342C333.644 132.007 330.35 130.874 326.994 129.952C321.112 128.204 315.029 126.393 310.233 122.532C307.646 120.45 304.971 118.507 302.385 116.627C293.089 109.874 284.308 103.497 280.067 91.4592C274.87 76.7362 274.021 63.436 277.323 48.3088C277.683 46.6432 277.999 44.9555 278.306 43.3008C278.8 40.6661 279.307 37.944 280.018 35.2916C280.437 33.7275 280.9 32.1701 281.37 30.6044C282.346 27.568 283.142 24.4767 283.754 21.3466C284.741 15.6879 283.831 11.7732 282.785 7.21618C282.17 4.73856 281.697 2.2279 281.367 -0.303596C281.018 -3.25533 280.716 -4.37128 278.449 -6.23596C267.795 -15.0238 259.424 -22.5738 252.11 -30.002C246.117 -36.0462 241.671 -45.4529 239.503 -52.2091C238.826 -54.4714 238.279 -56.7708 237.866 -59.0961C237.542 -60.6975 237.231 -62.3815 236.802 -64.0012C236.557 -64.9707 236.307 -65.9214 236.054 -66.8626C234.655 -71.984 233.332 -76.8225 233.883 -82.4967C235.443 -98.5297 245.475 -115.454 259.449 -125.61C262.897 -128.115 266.766 -128.84 270.431 -129.368C273.631 -129.752 276.854 -129.921 280.077 -129.874C286.046 -129.92 292.218 -129.968 297.609 -132.866C303.92 -136.26 305.656 -142.495 307.508 -149.089C307.948 -150.728 308.429 -152.412 308.97 -154.034C311.505 -161.611 314.635 -171.052 322.071 -175.422C328.887 -179.494 338.554 -178.045 347.063 -176.774C349.926 -176.341 352.629 -175.935 355.064 -175.756C356.056 -175.688 357.107 -175.522 358.11 -175.365C359.893 -175.089 361.73 -174.804 363.413 -174.999C380.332 -176.949 385.692 -193.186 391.381 -210.44C395.437 -222.734 399.631 -235.446 408.447 -242.46C411.47 -244.852 416.152 -246.576 419.456 -247.206C421.745 -247.648 424.105 -247.394 426.386 -247.146L427.187 -247.063C439.96 -245.751 454.463 -241.133 471.484 -232.952C473.97 -231.686 476.368 -230.252 478.659 -228.661C479.637 -228.015 480.61 -227.371 481.591 -226.755C501.992 -213.967 526.493 -209.002 547.126 -213.471C548.444 -213.755 549.772 -214.116 551.058 -214.468C553.323 -215.142 555.636 -215.643 557.977 -215.967C566.724 -216.961 577.594 -213.705 586.322 -211.088L588.782 -210.358C593.277 -209.028 597.576 -207.194 601.736 -205.423C604.269 -204.345 606.888 -203.23 609.526 -202.24L610.218 -201.979C613.141 -200.888 615.903 -199.855 618.547 -197.909C626.562 -192.025 633.022 -184.896 638.306 -178.694C644.715 -171.169 645.883 -163.393 647.233 -154.397C647.423 -153.22 647.606 -152.02 647.785 -150.806C650.722 -132.396 666.141 -121.529 681.043 -111.017C688.261 -105.927 695.735 -100.663 701.536 -94.6546C710.957 -84.8995 715.608 -69.2321 715.356 -48.0769C715.345 -47.2419 715.312 -46.4091 715.257 -45.5787C714.232 -30.0538 705.728 -12.1248 694.584 -1.9774C692.222 0.0949655 689.742 2.02851 687.156 3.81349C685.656 4.89097 684.102 5.99949 682.638 7.14739C681.412 8.10643 680.206 9.1214 679.043 10.1075C676.832 12.0626 674.493 13.8683 672.042 15.5128C670.369 16.5826 668.692 17.6481 667.011 18.7091C659.826 23.2725 652.407 27.9952 645.311 32.9812C641.217 35.8632 638.025 38.4515 637.225 43.2461C635.624 52.9868 641.442 60.6655 647.081 68.1046C650.047 72.0502 653.139 76.1304 655.096 80.472C661.255 94.2411 657.64 109.521 644.039 127.18C643.179 128.298 642.332 129.425 641.489 130.537C638.844 134.059 636.106 137.703 632.997 140.96C631.776 142.173 630.426 143.249 628.972 144.169C628.261 144.655 627.539 145.143 626.825 145.699C626.131 146.253 625.467 146.844 624.836 147.469C623.94 148.37 622.963 149.187 621.916 149.908C616.642 153.297 611.547 157.143 606.622 160.867C600.141 165.761 593.44 170.817 586.236 174.926C573.127 182.401 556.789 187.122 540.27 188.22C533.615 188.62 526.938 188.098 520.427 186.67C519.937 186.594 519.47 186.474 519.008 186.35ZM422.263 136.695C429.022 138.506 435.309 141.342 441.439 144.106C445.448 145.912 449.581 147.802 453.821 149.347C459.676 151.517 464.821 155.208 470.009 159.113C480.863 167.288 492.873 173.429 504.227 178.85L506.342 179.871C511.021 182.135 515.876 184.476 520.663 185.542C527.065 186.941 533.629 187.453 540.171 187.062C556.53 185.977 572.676 181.316 585.64 173.928C592.788 169.86 599.444 164.821 605.898 159.951C610.839 156.226 615.955 152.355 621.267 148.921C622.252 148.244 623.171 147.476 624.012 146.627C624.673 145.973 625.369 145.355 626.098 144.777C626.836 144.208 627.583 143.701 628.301 143.206C629.691 142.337 630.98 141.316 632.145 140.162C635.204 136.942 637.916 133.341 640.544 129.844C641.392 128.713 642.24 127.582 643.106 126.461C656.414 109.183 659.983 94.299 654.023 80.9722C652.126 76.7476 649.072 72.713 646.109 68.8135C640.309 61.2002 634.321 53.2891 636.026 43.0462C636.899 37.7914 640.275 35.0453 644.6 31.998C651.706 26.9944 659.152 22.2639 666.349 17.6936L671.375 14.496C673.788 12.8822 676.09 11.1086 678.265 9.18705C679.434 8.19748 680.648 7.16963 681.892 6.20025C683.38 5.03856 684.942 3.91716 686.453 2.83749C689.011 1.07816 691.464 -0.826934 693.803 -2.86834C704.739 -12.824 713.078 -30.4186 714.088 -45.6599C714.143 -46.4682 714.173 -47.2781 714.184 -48.093C714.428 -68.9171 709.894 -84.3057 700.693 -93.8252C694.971 -99.7514 687.529 -104.987 680.372 -110.04C665.256 -120.696 649.626 -131.715 646.615 -150.619C646.436 -151.839 646.253 -153.039 646.065 -154.22C644.742 -163.038 643.603 -170.654 637.416 -177.917C632.174 -184.068 625.755 -191.141 617.856 -196.948C615.324 -198.803 612.658 -199.8 609.817 -200.859L609.125 -201.121C606.465 -202.121 603.837 -203.239 601.29 -204.326C597.163 -206.083 592.895 -207.903 588.465 -209.211L586.002 -209.947C577.37 -212.533 566.636 -215.747 558.13 -214.785C555.849 -214.463 553.596 -213.972 551.39 -213.314C550.089 -212.96 548.743 -212.594 547.398 -212.303C526.445 -207.768 501.617 -212.794 480.953 -225.729C479.963 -226.348 478.981 -226.999 477.995 -227.652C475.748 -229.211 473.4 -230.618 470.966 -231.864C454.069 -240.001 439.716 -244.575 427.066 -245.879L426.25 -245.941C424.056 -246.175 421.789 -246.419 419.671 -246.012C416.617 -245.427 412.032 -243.767 409.184 -241.5C400.647 -234.699 396.514 -222.173 392.511 -210.041C386.957 -193.215 381.218 -175.808 363.538 -173.769C361.698 -173.555 359.774 -173.853 357.914 -174.145C356.891 -174.303 355.917 -174.453 354.984 -174.516C352.503 -174.676 349.777 -175.108 346.89 -175.543C338.583 -176.795 329.161 -178.219 322.647 -174.389C315.594 -170.22 312.54 -161.046 310.08 -153.656C309.546 -152.057 309.083 -150.388 308.634 -148.767C306.808 -142.217 304.926 -135.44 298.168 -131.808C292.515 -128.778 286.194 -128.719 280.078 -128.672C276.911 -128.721 273.743 -128.558 270.598 -128.182C267.052 -127.703 263.354 -126.998 260.13 -124.665C246.425 -114.704 236.578 -98.1144 235.05 -82.4062C234.52 -76.9433 235.816 -72.2082 237.183 -67.1915C237.434 -66.2456 237.683 -65.2902 237.959 -64.3072C238.391 -62.6767 238.716 -60.9688 239.041 -59.3366C239.442 -57.0523 239.976 -54.7932 240.64 -52.571C242.766 -45.9421 247.114 -36.7335 252.977 -30.7896C260.263 -23.3891 268.601 -15.8681 279.224 -7.09373C281.792 -4.97675 282.197 -3.49464 282.565 -0.381712C282.89 2.1077 283.358 4.57644 283.966 7.01238C284.997 11.4899 285.969 15.7191 284.945 21.615C284.324 24.7915 283.517 27.9288 282.528 31.0107C282.063 32.5575 281.598 34.1043 281.186 35.6602C280.487 38.2702 279.981 40.9674 279.494 43.5786C279.184 45.2628 278.869 46.9458 278.5 48.6244C275.256 63.4993 276.093 76.5993 281.212 91.1046C285.333 102.777 293.966 109.049 303.111 115.691C305.71 117.579 308.397 119.531 311.005 121.628C315.618 125.344 321.584 127.119 327.358 128.838C330.764 129.768 334.107 130.917 337.366 132.277C341.829 134.27 346.558 134.558 351.569 134.865L351.807 134.884C354.469 135.047 357.188 134.695 359.82 134.35C361.951 134.032 364.098 133.837 366.251 133.765C370.072 133.713 374.058 133.514 377.91 133.324C386.61 132.883 395.643 132.441 404.175 133.55C406.981 133.913 409.829 134.379 412.587 134.825L416.153 135.402C418.209 135.72 420.246 136.148 422.256 136.683L422.263 136.695Z" stroke="url(#paint2_linear_1_4250)" stroke-width="2" stroke-miterlimit="10"/>
<path d="M505.55 198.636C503.604 198.114 501.73 197.456 499.795 196.781L497.326 195.928C490.654 193.691 483.437 189.224 477.074 185.283L474.117 183.482C471.429 181.764 468.844 179.892 466.373 177.875C465.434 177.118 464.488 176.391 463.535 175.666C442.358 159.597 424.497 151.541 403.806 148.752C398.503 148.037 393.425 148.14 388.058 148.251L387.337 148.265C381.217 148.391 372.198 148.372 364.512 146.751C362.737 146.381 360.977 145.996 359.226 145.612C350.764 143.759 342.774 142.006 334.101 141.766L331.212 141.694C325.826 141.572 320.737 141.45 315.388 140.607C298.655 137.956 286.297 130.87 274.056 116.917C268.992 111.145 265.154 100.065 264.115 92.5554C263.112 85.3483 263.407 77.3887 264.989 68.9013C265.8 64.5367 267.03 60.1733 268.219 55.9606C268.66 54.3175 269.145 52.6763 269.58 51.052L269.994 49.5078C273.242 37.3844 276.925 23.6415 272.67 11.5313C272.078 9.99384 271.369 8.50353 270.552 7.0731C269.809 5.75902 269.146 4.40174 268.565 3.00854C266.567 -2.06834 260.31 -5.76334 254.77 -9.04412C252.328 -10.4195 249.977 -11.9496 247.731 -13.6251C245.229 -15.5973 242.77 -17.5983 240.307 -19.6006L236.156 -22.9583C231.827 -26.4195 229.032 -29.7872 227.096 -33.8686C226.102 -35.9665 225.02 -38.073 223.87 -40.2835C220.163 -47.5746 216.297 -55.1048 215.21 -62.849C214.903 -65.0203 214.457 -67.2745 214.02 -69.4504C213.079 -74.1581 212.111 -79.0448 212.406 -83.8202C212.576 -86.4895 213.336 -89.0814 214.067 -91.5851C214.269 -92.3383 214.509 -93.0815 214.711 -93.8348C215.802 -97.9073 216.952 -101.278 218.91 -104.512C227.574 -118.868 236.727 -127.073 249.519 -131.952C253.853 -133.596 258.361 -134.911 262.723 -136.205C270.856 -138.567 279.273 -141.05 286.685 -145.775C289.734 -147.729 291.814 -149.538 292.66 -152.561C292.95 -153.644 293.241 -154.731 293.532 -155.814C293.743 -156.605 293.955 -157.396 294.162 -158.168C294.604 -159.816 295.045 -161.464 295.486 -163.107C296.42 -166.596 297.357 -170.089 298.291 -173.578C300.099 -180.627 303.629 -185.828 308.782 -189.039C314.097 -192.343 320.082 -193.403 325.753 -194.21C330.294 -194.856 334.65 -194.319 338.87 -193.804C341.379 -193.495 343.975 -193.178 346.602 -193.105C347.895 -193.034 349.178 -192.833 350.432 -192.508C351.127 -192.351 351.821 -192.191 352.544 -192.078C354.79 -191.733 358.696 -192.423 360.894 -193.292C371.552 -197.465 375.436 -207.117 378.048 -216.923L378.24 -217.639C380.334 -225.454 382.467 -233.547 387.084 -240.354C388.137 -241.908 389.279 -243.459 390.384 -244.96C391.007 -245.802 391.625 -246.645 392.238 -247.49C392.539 -247.914 392.825 -248.342 393.078 -248.739C394.26 -250.476 395.376 -252.114 397.486 -253.335C400.131 -254.801 402.916 -255.997 405.801 -256.905C408.538 -257.818 411.372 -258.414 414.246 -258.68C418.107 -259.124 421.618 -258.808 425.336 -258.473C426.323 -258.385 427.353 -258.291 428.382 -258.212C439.094 -257.421 449.475 -251.854 458.629 -246.944L458.819 -246.842C459.459 -246.499 460.097 -246.187 460.731 -245.876C462.523 -245.08 464.206 -244.059 465.74 -242.838C467.395 -241.349 469.198 -240.033 471.122 -238.913C471.849 -238.47 472.536 -237.966 473.179 -237.408C473.966 -236.689 474.863 -236.099 475.837 -235.662C478.468 -234.716 481.186 -234.033 483.952 -233.624C494.018 -232.102 504.102 -229.233 513.851 -226.47C516.198 -225.806 518.573 -225.129 520.923 -224.479C526.978 -222.816 533.749 -222.4 542.146 -223.223C546.388 -223.636 549.823 -225.127 553.143 -226.569C558.286 -228.799 563.138 -230.905 570.509 -229.182C573.3 -228.535 576.162 -227.945 578.925 -227.381C581.688 -226.817 584.597 -226.215 587.42 -225.554C604.155 -221.63 618.236 -215.354 629.156 -206.898C639.215 -199.111 642.856 -190.778 647.054 -181.135C648.559 -177.704 650.108 -174.136 652.053 -170.37C652.639 -169.203 653.183 -168.048 653.727 -166.893C654.792 -164.424 656.074 -162.055 657.557 -159.812C660.082 -156.213 662.286 -152.373 664.415 -148.654C665.717 -146.388 667.059 -144.045 668.459 -141.788C672.34 -135.54 677.93 -130.863 683.342 -126.335C686.645 -123.669 689.801 -120.827 692.798 -117.822C693.525 -117.067 694.21 -116.323 694.884 -115.598C697.275 -113.004 699.538 -110.556 702.777 -108.547C703.893 -107.85 704.994 -107.191 706.073 -106.544C711.616 -103.217 716.854 -100.073 720.915 -94.2157C725.434 -87.7067 727.792 -81.2213 730.29 -74.3553C731.164 -71.9614 732.056 -69.4869 733.074 -66.9535C736.241 -59.0402 736.012 -50.1549 735.374 -42.5146C734.983 -37.8508 733.829 -33.6032 732.614 -29.1249L732.564 -28.9365C732.221 -27.6559 731.904 -26.363 731.588 -25.0702C730.552 -20.8064 729.492 -16.4176 727.222 -12.5449C719.554 0.468025 709.886 11.5374 699.271 19.4715C684.111 30.8152 671.367 36.7965 657.992 38.8793C653.185 39.6098 650.151 41.4512 648.993 44.3047C645.775 52.2429 656.775 66.8469 664.053 76.5126C666.84 80.2112 669.037 83.1312 669.911 84.9398C671.929 89.0936 672.675 93.7542 673.409 98.2704L673.581 99.3257C675.77 112.871 664.22 127.684 654.939 139.589C652.785 142.352 650.748 144.96 649.075 147.323C647.636 149.252 646.059 151.074 644.356 152.775C642.717 154.405 641.195 156.148 639.802 157.993C637.551 161.155 635.828 163.398 632.632 165.715C630.471 167.345 628.416 169.11 626.479 171C624.428 172.996 622.244 174.85 619.941 176.55C618.302 177.71 616.692 178.99 615.127 180.23C612.661 182.281 610.059 184.163 607.34 185.864C605.548 186.898 603.878 188.136 602.244 189.313C600.611 190.49 598.952 191.686 597.184 192.746C583.994 200.636 574.356 201.455 559.768 202.693L557.25 202.911C543.026 204.146 529.93 202.302 516.061 200.362C513.954 200.065 511.841 199.772 509.707 199.482C508.304 199.291 506.915 199.008 505.55 198.636ZM417.678 150.284C433.138 154.426 447.699 162.128 464.26 174.695C465.221 175.426 466.168 176.17 467.12 176.914C469.547 178.903 472.088 180.748 474.73 182.44C475.689 183.025 476.676 183.638 477.691 184.243C484.001 188.154 491.152 192.583 497.701 194.777C498.54 195.057 499.365 195.349 500.178 195.632C503.411 196.761 506.423 197.81 509.863 198.278C512 198.568 514.12 198.862 516.222 199.159C530.027 201.092 543.057 202.918 557.144 201.702L559.662 201.484C574.086 200.257 583.615 199.45 596.572 191.694C598.302 190.644 599.95 189.47 601.546 188.319C603.143 187.167 604.908 185.894 606.728 184.812C609.4 183.146 611.958 181.303 614.383 179.294C615.955 178.045 617.588 176.757 619.249 175.552C621.5 173.881 623.635 172.059 625.639 170.099C627.612 168.172 629.707 166.374 631.91 164.715C634.966 162.506 636.619 160.335 638.809 157.268C640.224 155.387 641.772 153.61 643.441 151.949C645.106 150.29 646.646 148.51 648.05 146.624C649.743 144.242 651.784 141.62 653.947 138.844C663.087 127.124 674.457 112.549 672.35 99.5104L672.183 98.4565C671.474 94.0329 670.746 89.4577 668.812 85.4425C667.99 83.7389 665.71 80.7157 663.073 77.2136C655.621 67.3297 644.388 52.4061 647.865 43.8409C649.19 40.5729 652.528 38.5002 657.782 37.6827C670.957 35.6319 683.521 29.7185 698.531 18.5012C709.02 10.6595 718.581 -0.292263 726.166 -13.1659C728.359 -16.8827 729.403 -21.1948 730.415 -25.3645C730.735 -26.6715 731.049 -27.975 731.398 -29.2591L731.449 -29.4521C732.64 -33.8965 733.795 -38.0933 734.177 -42.6484C734.839 -50.545 735.02 -58.873 731.958 -66.5409C730.936 -69.0957 730.036 -71.5975 729.16 -73.9819C726.691 -80.7695 724.355 -87.1882 719.93 -93.5715C716.008 -99.2144 711.119 -102.154 705.463 -105.547C704.376 -106.202 703.29 -106.861 702.149 -107.56C698.777 -109.66 696.458 -112.163 693.994 -114.822C693.329 -115.545 692.648 -116.282 691.925 -117.031C688.959 -120.005 685.835 -122.816 682.566 -125.453C677.082 -130.036 671.423 -134.777 667.444 -141.187C666.034 -143.462 664.679 -145.813 663.375 -148.09C661.258 -151.781 659.069 -155.597 656.572 -159.152C655.052 -161.448 653.736 -163.872 652.64 -166.397C652.106 -167.55 651.566 -168.704 650.977 -169.82C649.015 -173.621 647.459 -177.197 645.947 -180.66C641.81 -190.155 638.234 -198.37 628.415 -205.961C617.641 -214.303 603.726 -220.499 587.124 -224.392C584.315 -225.049 581.438 -225.638 578.661 -226.206C575.884 -226.773 573.017 -227.365 570.213 -228.02C563.245 -229.645 558.563 -227.609 553.615 -225.463C550.19 -223.989 546.689 -222.46 542.259 -222.022C533.713 -221.188 526.829 -221.585 520.602 -223.319C518.246 -223.95 515.906 -224.638 513.526 -225.311C503.811 -228.07 493.763 -230.924 483.77 -232.436C480.92 -232.857 478.12 -233.562 475.41 -234.54C474.305 -235.017 473.286 -235.674 472.395 -236.483C471.803 -236.998 471.17 -237.463 470.5 -237.874C468.514 -239.032 466.651 -240.39 464.94 -241.927C463.477 -243.09 461.87 -244.06 460.159 -244.813C459.511 -245.128 458.859 -245.449 458.206 -245.8L458.016 -245.902C448.963 -250.755 438.706 -256.258 428.243 -257.033C427.208 -257.109 426.192 -257.199 425.182 -257.293C421.527 -257.622 418.075 -257.931 414.334 -257.5C411.55 -257.241 408.806 -256.662 406.155 -255.776C403.347 -254.89 400.635 -253.727 398.058 -252.304C396.187 -251.221 395.195 -249.761 394.045 -248.071C393.759 -247.643 393.468 -247.216 393.163 -246.794C392.552 -245.948 391.928 -245.106 391.303 -244.264C390.206 -242.772 389.072 -241.234 388.029 -239.697C383.526 -233.051 381.407 -225.066 379.352 -217.341L379.167 -216.649C376.458 -206.541 372.445 -196.575 361.291 -192.212C358.939 -191.293 354.843 -190.538 352.327 -190.93C351.575 -191.046 350.851 -191.209 350.128 -191.373C348.951 -191.681 347.747 -191.872 346.533 -191.942C343.846 -192.017 341.229 -192.354 338.687 -192.647C334.356 -193.182 330.268 -193.682 325.881 -193.051C320.337 -192.26 314.49 -191.228 309.388 -188.039C304.504 -185.003 301.15 -180.043 299.422 -173.295C298.524 -169.791 297.579 -166.301 296.613 -162.81C296.173 -161.167 295.73 -159.514 295.291 -157.876C295.08 -157.09 294.87 -156.303 294.66 -155.522C294.368 -154.43 294.075 -153.337 293.777 -152.226C292.726 -148.471 289.877 -146.398 287.294 -144.749C279.737 -139.937 271.237 -137.446 263.022 -135.04C258.726 -133.804 254.241 -132.483 249.943 -130.839C237.425 -126.059 228.43 -118.008 219.931 -103.896C218.052 -100.801 216.944 -97.4954 215.864 -93.5208C215.661 -92.7628 215.456 -92.0001 215.214 -91.2475C214.5 -88.8097 213.758 -86.2838 213.597 -83.7432C213.31 -79.1072 214.263 -74.3153 215.195 -69.6905C215.619 -67.503 216.087 -65.2331 216.399 -63.025C217.457 -55.4752 221.269 -48.0453 224.953 -40.8563C226.1 -38.6163 227.184 -36.4991 228.188 -34.3833C230.035 -30.4772 232.726 -27.233 236.904 -23.8631C238.289 -22.7517 239.673 -21.6325 241.054 -20.5055C243.514 -18.5091 245.978 -16.5068 248.466 -14.5431C250.672 -12.9045 252.98 -11.4079 255.376 -10.0625C261.071 -6.69986 267.524 -2.88683 269.666 2.57677C270.23 3.92426 270.873 5.23729 271.592 6.50904C272.441 7.99216 273.175 9.5384 273.786 11.134C278.178 23.599 274.431 37.5466 271.137 49.8193L270.725 51.3588C270.286 52.9972 269.842 54.6545 269.36 56.2815C268.177 60.4707 266.955 64.8058 266.153 69.1174C264.594 77.4799 264.305 85.3095 265.286 92.3897C266.305 99.7272 270.025 110.514 274.948 116.117C287.146 130.038 298.918 136.785 315.564 139.423C320.834 140.26 325.883 140.377 331.23 140.497L334.124 140.571C342.911 140.817 350.959 142.559 359.469 144.441C361.22 144.824 362.975 145.209 364.749 145.583C372.317 147.172 381.246 147.193 387.3 147.084L388.016 147.069C393.439 146.958 398.555 146.865 403.954 147.58C408.581 148.189 413.165 149.092 417.678 150.284Z" stroke="url(#paint3_linear_1_4250)" stroke-width="2" stroke-miterlimit="10"/>
</g>
<defs>
<linearGradient id="paint0_linear_1_4250" x1="181.5" y1="-30" x2="319.5" y2="420" gradientUnits="userSpaceOnUse">
<stop stop-color="#FFF1DC"/>
<stop offset="1" stop-color="#FFDBCB"/>
</linearGradient>
<linearGradient id="paint1_linear_1_4250" x1="136.5" y1="-13" x2="296" y2="370" gradientUnits="userSpaceOnUse">
<stop stop-color="#FFBB50"/>
<stop offset="1" stop-color="#EBA536" stop-opacity="0"/>
</linearGradient>
<linearGradient id="paint2_linear_1_4250" x1="519.052" y1="-229.28" x2="415.142" y2="158.52" gradientUnits="userSpaceOnUse">
<stop stop-color="#E18457" stop-opacity="0"/>
<stop offset="1" stop-color="#F9C7AF"/>
</linearGradient>
<linearGradient id="paint3_linear_1_4250" x1="522.34" y1="-243.069" x2="410.789" y2="173.245" gradientUnits="userSpaceOnUse">
<stop stop-color="#E18457" stop-opacity="0"/>
<stop offset="1" stop-color="#F9C7AF"/>
</linearGradient>
</defs>
</svg>
