<svg width="104" height="104" viewBox="0 0 104 104" fill="none" xmlns="http://www.w3.org/2000/svg">
<path d="M60.7273 78.0861V60.6024C60.7273 59.8295 60.4208 59.0884 59.8752 58.5419C59.3297 57.9954 58.5897 57.6884 57.8182 57.6884H46.1818C45.4103 57.6884 44.6703 57.9954 44.1248 58.5419C43.5792 59.0884 43.2727 59.8295 43.2727 60.6024V78.0861C43.2727 78.8589 42.9662 79.6001 42.4207 80.1465C41.8751 80.693 41.1352 81 40.3636 81H22.9091C22.1376 81 21.3976 80.693 20.8521 80.1465C20.3065 79.6001 20 78.8589 20 78.0861V44.3935C20.0065 43.9903 20.0935 43.5924 20.2559 43.2233C20.4183 42.8542 20.6527 42.5214 20.9455 42.2445L50.0364 15.764C50.5726 15.2725 51.2732 15 52 15C52.7268 15 53.4274 15.2725 53.9636 15.764L83.0545 42.2445C83.3473 42.5214 83.5817 42.8542 83.7441 43.2233C83.9065 43.5924 83.9935 43.9903 84 44.3935V78.0861C84 78.8589 83.6935 79.6001 83.148 80.1465C82.6024 80.693 81.8624 81 81.0909 81H63.6364C62.8648 81 62.1249 80.693 61.5793 80.1465C61.0338 79.6001 60.7273 78.8589 60.7273 78.0861Z" stroke="url(#paint0_linear_1_4302)" stroke-width="3" stroke-linecap="round" stroke-linejoin="round"/>
<defs>
<linearGradient id="paint0_linear_1_4302" x1="52" y1="15" x2="52" y2="81" gradientUnits="userSpaceOnUse">
<stop stop-color="#FFBB50"/>
<stop offset="1" stop-color="#FF935E" stop-opacity="0"/>
</linearGradient>
</defs>
</svg>
