<svg width="18" height="26" viewBox="0 0 18 26" fill="none" xmlns="http://www.w3.org/2000/svg">
<path d="M9 0C4.03144 0 0 3.74388 0 8.35714C0 15.7857 9 26 9 26C9 26 18 15.7857 18 8.35714C18 3.74388 13.9686 0 9 0ZM9 13C8.28799 13 7.59196 12.7822 6.99995 12.374C6.40793 11.9659 5.94651 11.3858 5.67403 10.7071C5.40156 10.0284 5.33027 9.28159 5.46917 8.56109C5.60808 7.84059 5.95095 7.17877 6.45442 6.65932C6.95788 6.13986 7.59934 5.78611 8.29768 5.6428C8.99601 5.49948 9.71985 5.57304 10.3777 5.85416C11.0355 6.13529 11.5977 6.61136 11.9933 7.22217C12.3889 7.83298 12.6 8.5511 12.6 9.28571C12.599 10.2705 12.2193 11.2146 11.5444 11.9109C10.8695 12.6073 9.95446 12.9989 9 13Z" fill="#FFBB50"/>
</svg>
