<svg width="20" height="18" viewBox="0 0 20 18" fill="none" xmlns="http://www.w3.org/2000/svg">
<path d="M5 15V17" stroke="#3B3A5D" stroke-width="1.5" stroke-linecap="round" stroke-linejoin="round"/>
<path d="M14 15V17" stroke="#3B3A5D" stroke-width="1.5" stroke-linecap="round" stroke-linejoin="round"/>
<path d="M4 8V2.94444C4 2.42875 4.15804 1.93417 4.43934 1.56951C4.72064 1.20486 5.10218 1 5.5 1C5.89782 1 6.27936 1.20486 6.56066 1.56951C6.84196 1.93417 7 2.42875 7 2.94444" stroke="#3B3A5D" stroke-width="1.5" stroke-linecap="round" stroke-linejoin="round"/>
<path d="M16 7H11V10H16V7Z" stroke="#3B3A5D" stroke-width="1.5" stroke-linecap="round" stroke-linejoin="round"/>
<path d="M15.7857 8H18.3571C18.5276 8 18.6912 8.06705 18.8117 8.18639C18.9323 8.30573 19 8.46759 19 8.63636V11.1818C19 12.1945 18.5936 13.1656 17.8703 13.8817C17.1469 14.5977 16.1658 15 15.1429 15H4.85714C3.83416 15 2.85309 14.5977 2.12973 13.8817C1.40638 13.1656 1 12.1945 1 11.1818V8.63636C1 8.46759 1.06773 8.30573 1.18829 8.18639C1.30885 8.06705 1.47236 8 1.64286 8H10.6429" stroke="#3B3A5D" stroke-width="1.5" stroke-linecap="round" stroke-linejoin="round"/>
</svg>
