<svg width="360" height="153" viewBox="0 0 360 153" fill="none" xmlns="http://www.w3.org/2000/svg">
<path d="M123.68 37.5698C123.68 37.5698 139.371 28.7206 141.658 29.5759C143.944 30.4312 139.656 47.839 139.086 48.9794C138.516 50.1198 123.68 37.5698 123.68 37.5698Z" fill="#EAB196" stroke="#B97756" stroke-linecap="round" stroke-linejoin="round"/>
<path d="M140.796 31.8615C140.796 31.8615 140.116 32.9196 139.25 34.4438C137.737 37.1084 135.664 41.1986 135.664 43.5616C135.664 47.268 137.945 46.9829 138.515 44.1099L140.511 35.831" stroke="#B97756" stroke-linecap="round" stroke-linejoin="round"/>
<path d="M8.9033 83.9974C13.2061 83.9974 16.6943 79.4562 16.6943 73.8543C16.6943 68.2524 13.2061 63.7112 8.9033 63.7112C4.60045 63.7112 1.1123 68.2524 1.1123 73.8543C1.1123 79.4562 4.60045 83.9974 8.9033 83.9974Z" fill="#EAB196" stroke="#B97756" stroke-linecap="round" stroke-linejoin="round"/>
<path d="M79.5207 146.638C120.52 146.638 153.757 118.5 153.757 83.7892C153.757 49.0788 120.52 20.9404 79.5207 20.9404C38.521 20.9404 5.28418 49.0788 5.28418 83.7892C5.28418 118.5 38.521 146.638 79.5207 146.638Z" fill="#EAB196" stroke="#B97756" stroke-linecap="round" stroke-linejoin="round"/>
<path d="M127.737 127.114C115.126 137.158 98.1847 143.315 79.5214 143.315C46.2136 143.315 18.3119 123.703 11.0527 97.3751" fill="#EAB196"/>
<path d="M127.737 127.114C115.126 137.158 98.1847 143.315 79.5214 143.315C46.2136 143.315 18.3119 123.703 11.0527 97.3751" stroke="#B97756" stroke-width="2" stroke-linecap="round" stroke-linejoin="round"/>
<path d="M9.2542 85.7625C9.22679 85.11 9.21582 84.4521 9.21582 83.7887C9.21764 76.6115 10.723 69.5142 13.6349 62.9542" fill="#EAB196"/>
<path d="M9.2542 85.7625C9.22679 85.11 9.21582 84.4521 9.21582 83.7887C9.21764 76.6115 10.723 69.5142 13.6349 62.9542" stroke="#B97756" stroke-width="2" stroke-linecap="round" stroke-linejoin="round"/>
<path d="M57.2285 27.8595C71.837 23.7293 87.3045 23.7293 101.913 27.8595" stroke="#B97756" stroke-width="5" stroke-linecap="round" stroke-linejoin="round"/>
<path d="M149.646 64.3915C149.646 64.3915 159.065 61.2499 160.491 62.966C161.916 64.6821 161.916 84.6503 160.776 88.3621C159.635 92.0739 151.927 91.2131 146.521 87.2217C144.971 86.1334 143.716 84.6765 142.87 82.9823C142.024 81.2881 141.613 79.41 141.674 77.5172" fill="#EAB196"/>
<path d="M149.646 64.3915C149.646 64.3915 159.065 61.2499 160.491 62.966C161.916 64.6821 161.916 84.6503 160.776 88.3621C159.635 92.0739 151.927 91.2131 146.521 87.2217C144.971 86.1334 143.716 84.6765 142.87 82.9823C142.024 81.2881 141.613 79.41 141.674 77.5172" stroke="#B97756" stroke-linecap="round" stroke-linejoin="round"/>
<path d="M143.938 76.6613L138.23 77.5166" stroke="#B97756" stroke-linecap="round" stroke-linejoin="round"/>
<path d="M142.513 82.9393C142.513 82.9393 141.087 92.9289 142.798 93.214C144.509 93.4991 147.365 88.3618 147.365 88.3618C147.365 88.3618 143.368 83.7946 142.513 82.9393Z" fill="#263238" stroke="#B97756" stroke-linecap="round" stroke-linejoin="round"/>
<path d="M137.32 59.5444C137.868 61.6004 137.534 63.4646 136.618 63.7004C135.703 63.9361 134.535 62.4558 134.003 60.4107C133.471 58.3656 133.789 56.4905 134.705 56.2548C135.62 56.019 136.794 57.4829 137.32 59.5444Z" fill="#263238"/>
<path d="M107.335 31.8893C107.335 31.8893 125.291 13.9333 128.794 17.4368C132.298 20.9403 130.988 36.2701 130.988 38.4632V44.5929" fill="#EAB196"/>
<path d="M107.335 31.8893C107.335 31.8893 125.291 13.9333 128.794 17.4368C132.298 20.9403 130.988 36.2701 130.988 38.4632V44.5929" stroke="#B97756" stroke-linecap="round" stroke-linejoin="round"/>
<path d="M129.387 21.3018C129.387 21.3018 129.672 16.7347 127.671 19.5912C125.67 22.4477 119.968 42.1308 121.678 44.4171C123.389 46.7034 128.257 45.5575 129.387 41.2755C130.516 36.9934 129.672 24.723 129.672 24.723" stroke="#B97756" stroke-linecap="round" stroke-linejoin="round"/>
<path d="M31.0977 125.447L40.9228 152H51.7676L56.6144 138.299" fill="#EAB196"/>
<path d="M31.0977 125.447L40.9228 152H51.7676L56.6144 138.299" stroke="#B97756" stroke-linecap="round" stroke-linejoin="round"/>
<path d="M121.678 128.885L112.265 152H101.42L96.5674 138.299" fill="#EAB196"/>
<path d="M121.678 128.885L112.265 152H101.42L96.5674 138.299" stroke="#B97756" stroke-linecap="round" stroke-linejoin="round"/>
<path d="M75.897 114.92V109.377C71.8069 109.216 68.7494 107.906 66.7244 105.446C64.6994 102.986 63.6029 99.3124 63.4347 94.4254L71.8398 92.9944C71.8759 94.6692 72.0853 96.3357 72.4648 97.9673C72.6861 99.081 73.2118 100.112 73.9836 100.944C74.332 101.276 74.7436 101.534 75.1938 101.704C75.644 101.873 76.1236 101.951 76.6043 101.931C77.8324 101.931 78.6768 101.537 79.1373 100.736C79.6055 99.8995 79.8421 98.9532 79.8227 97.9947C79.8848 96.1935 79.395 94.4164 78.4191 92.9012C77.3277 91.3583 76.0373 89.9665 74.5812 88.7617L69.5151 84.4084C68.4099 83.3826 67.375 82.2836 66.4174 81.1188C65.4777 79.9705 64.7365 78.6733 64.2243 77.2808C63.6546 75.654 63.3816 73.9381 63.4183 72.2148C63.4183 68.4865 64.4819 65.5788 66.6092 63.4917C68.7366 61.4046 71.5858 60.2222 75.1569 59.9444V54.6974H78.0627V59.9992C79.9134 60.0365 81.7252 60.538 83.3316 61.4576C84.6339 62.2442 85.712 63.3525 86.4623 64.676C87.1878 66.001 87.7091 67.428 88.0084 68.9087C88.3112 70.369 88.5055 71.8497 88.5896 73.3387L80.0694 74.5888C80.0451 73.2807 79.926 71.976 79.713 70.6851C79.5783 69.7236 79.2009 68.8122 78.6165 68.0369C78.3215 67.7069 77.9509 67.4533 77.5366 67.2976C77.1222 67.142 76.6763 67.089 76.237 67.1432C75.7395 67.1362 75.248 67.2521 74.8061 67.4807C74.3642 67.7093 73.9856 68.0435 73.7039 68.4536C73.1308 69.2747 72.828 70.254 72.8377 71.2553C72.7657 72.8243 73.2298 74.3712 74.1535 75.6415C75.0601 76.7906 76.0556 77.8667 77.1306 78.8599L82.0651 83.1474C83.3925 84.3458 84.621 85.6495 85.7386 87.0456C86.8557 88.4454 87.7592 90.0029 88.4197 91.6676C89.1225 93.5172 89.4631 95.4846 89.423 97.4629C89.4489 99.452 89.0096 101.42 88.14 103.209C87.3092 104.916 86.0347 106.368 84.4501 107.414C82.7436 108.518 80.786 109.172 78.759 109.317V114.92H75.897Z" fill="#BD714C"/>
<path opacity="0.35" d="M110.823 107.591C120.682 107.591 128.674 99.8513 128.674 90.3038C128.674 80.7564 120.682 73.0167 110.823 73.0167C100.963 73.0167 92.9707 80.7564 92.9707 90.3038C92.9707 99.8513 100.963 107.591 110.823 107.591Z" fill="white"/>
<path opacity="0.3" d="M311.97 31.5292C311.97 31.5292 305.29 -1.12076 283.02 1.10924C272.9 2.10924 266.13 7.18924 260.26 15.1092C252.73 25.2192 250.03 19.3393 239.26 22.6593C229.62 25.6593 231.1 33.7892 225.16 35.2692C219.22 36.7492 214.78 30.0792 206.61 31.5592C198.44 33.0392 194 41.2092 194 41.2092H342.39C342.003 38.4335 340.814 35.8312 338.968 33.7224C337.122 31.6135 334.7 30.0901 332 29.3392C322.36 26.3392 317.9 33.7592 311.97 31.5292Z" stroke="#B05529" stroke-miterlimit="10"/>
</svg>
