<svg width="23" height="22" viewBox="0 0 23 22" fill="none" xmlns="http://www.w3.org/2000/svg">
<path d="M20.7399 0H2.58795C1.59609 0 0.729492 0.71367 0.729492 1.69387V19.8861C0.729492 20.8717 1.59609 21.7499 2.58795 21.7499H20.7346C21.7318 21.7499 22.4794 20.8659 22.4794 19.8861V1.69387C22.4852 0.71367 21.7318 0 20.7399 0ZM7.47148 18.1296H4.35561V8.44169H7.47148V18.1296ZM6.02133 6.96872H5.999C5.0018 6.96872 4.3561 6.2264 4.3561 5.29718C4.3561 4.35096 5.01879 3.62612 6.03832 3.62612C7.05785 3.62612 7.6817 4.34562 7.70403 5.29718C7.70355 6.2264 7.05785 6.96872 6.02133 6.96872ZM18.8591 18.1296H15.7433V12.8325C15.7433 11.5634 15.2898 10.6963 14.1625 10.6963C13.3012 10.6963 12.7915 11.2789 12.5648 11.8464C12.4798 12.0503 12.457 12.328 12.457 12.6116V18.1296H9.34111V8.44169H12.457V9.7899C12.9104 9.1442 13.6188 8.21497 15.267 8.21497C17.3124 8.21497 18.8596 9.56317 18.8596 12.4698L18.8591 18.1296Z" fill="#3B3A5D"/>
</svg>
