<svg width="921" height="464" viewBox="0 0 921 464" fill="none" xmlns="http://www.w3.org/2000/svg">
<rect width="921" height="464" rx="5" fill="url(#paint0_linear_1_4999)"/>
<mask id="mask0_1_4999" style="mask-type:alpha" maskUnits="userSpaceOnUse" x="0" y="0" width="921" height="464">
<rect width="921" height="464" rx="5" fill="#F3D1C1"/>
</mask>
<g mask="url(#mask0_1_4999)">
<path d="M614.365 370.522C624.454 368.168 642.763 353.859 642.787 353.838C642.81 353.817 629.691 344.633 628.79 344.159C618.319 338.65 594.877 334.164 585.428 343.437C578.614 350.117 580.054 360.839 587.085 366.701C594.116 372.562 605.763 372.537 614.365 370.522Z" fill="#F8DACC" fill-opacity="0.69"/>
<path d="M870.325 517.097L871.481 518.249L880.514 515.826C878.94 514.362 877.321 512.896 875.66 511.383C870.938 507.11 865.808 502.624 860.504 498.083C863.985 492.386 867.132 486.491 869.928 480.427C879.735 482.255 898.776 478.756 901.235 478.287C902.86 484.356 904.287 490.287 905.6 495.899C906.503 499.764 907.335 503.473 908.121 507.063L915.17 501.81C914.495 499.287 913.904 496.698 913.216 494.017C911.569 487.867 909.809 481.293 907.903 474.555C910.215 473.481 929.019 464.623 935.389 457.214C941.128 450.501 946.572 440.344 944.581 431.216C942.59 422.088 933.774 416.048 924.694 419.009C912.127 423.125 905.288 446.022 905.35 457.816C905.348 458.518 906.235 466.086 906.865 470.842C906.135 468.115 905.31 465.413 904.459 462.615C902.804 457.037 900.991 451.516 899.05 445.576C898.01 442.746 896.966 439.883 895.918 436.988C894.939 434.093 893.528 431.168 892.329 428.215C889.409 421.456 886.134 414.733 882.679 408.045C887.544 406.579 904.79 401.121 911.506 395.329C918.221 389.538 925.112 380.367 924.528 371.037C923.943 361.708 916.132 354.404 906.734 355.959C893.676 358.131 883.456 379.743 881.719 391.42C881.608 392.151 881.283 400.702 881.235 405.377C879.128 401.382 877.045 397.365 874.782 393.383C868.241 381.879 861.263 370.435 854.357 358.985C852.239 355.49 850.171 351.966 848.093 348.46C849.837 347.992 870.454 341.922 877.975 335.432C884.671 329.676 891.595 320.466 890.997 311.14C890.399 301.814 882.615 294.503 873.204 296.062C860.146 298.234 849.939 319.842 848.202 331.519C848.073 332.401 847.653 344.69 847.703 347.819C843.117 340.074 838.617 332.321 834.493 324.496C828.868 313.968 823.935 303.085 819.724 291.915C820.528 291.699 842.101 285.49 849.815 278.846C856.506 273.075 863.417 263.87 862.833 254.54C862.248 245.21 854.451 237.903 845.043 239.476C831.981 241.634 821.778 263.255 820.028 274.936C819.892 275.849 819.43 289.07 819.546 291.466C819.367 290.797 818.99 290.153 818.76 289.513C814.838 278.19 811.934 266.539 810.083 254.699C808.977 248.169 808.283 241.865 807.748 235.723C811.927 234.968 830.738 231.37 838.339 226.16C845.618 221.167 853.508 212.781 853.93 203.444C854.351 194.108 847.433 185.995 837.901 186.505C824.689 187.227 812.172 207.569 809.172 219.058C809.018 219.684 808.043 226.187 807.418 230.944C807.214 228.164 806.961 225.308 806.817 222.643C806.25 212.563 806.395 203.447 806.552 195.307C806.687 190.681 806.882 186.448 807.146 182.577C810.77 179.749 825.489 168.069 829.752 160.1C834.015 152.13 837.065 141.212 833.145 132.733C829.225 124.254 819.33 120.242 811.121 125.09C799.778 131.815 797.968 155.658 800.574 167.194C800.837 168.176 806.092 183.386 806.318 183.194L806.551 183.029C806.241 186.781 805.964 190.817 805.73 195.235C805.384 203.382 805.077 212.6 805.404 222.656C805.644 233.491 806.51 244.303 807.998 255.039C809.622 267.067 812.308 278.927 816.025 290.48C816.062 290.617 816.102 290.767 816.138 290.903C813.838 287.764 807.253 279.151 806.668 278.548C798.45 270.053 777.564 258.479 765.697 264.337C757.145 268.56 755.175 279.203 760.068 286.953C764.962 294.703 776.006 298.319 784.786 299.092C794.707 299.983 815.068 292.798 816.681 292.219C820.765 303.898 825.621 315.292 831.215 326.325C834.403 332.779 837.877 339.156 841.419 345.514C839.362 342.85 837.516 340.48 837.23 340.177C828.998 331.685 808.126 320.108 796.245 325.969C787.693 330.192 785.723 340.835 790.617 348.585C795.51 356.335 806.555 359.951 815.348 360.721C824.141 361.491 841.762 355.742 846.362 354.157C847.74 356.579 849.123 359.015 850.474 361.445C857.143 373.045 863.855 384.59 870.085 396.133C872.282 400.192 874.294 404.271 876.279 408.358C874.467 406.008 872.914 404.028 872.636 403.751C864.418 395.256 843.546 383.679 831.665 389.54C823.113 393.763 821.143 404.406 826.036 412.156C830.93 419.906 841.974 423.522 850.767 424.292C859.279 425.049 875.463 419.876 880.951 418.009C882.904 422.251 884.857 426.492 886.563 430.682C887.659 433.575 888.909 436.28 889.866 439.254C890.822 442.228 891.842 445.053 892.81 447.907C894.478 453.482 896.247 459.219 897.746 464.708C898.765 468.513 899.739 472.154 900.722 475.823C898.58 471.749 894.221 463.87 893.793 463.254C887.461 454.999 879.121 448.504 869.569 444.39C868.902 443.444 868.152 442.559 867.328 441.747C860.757 435.367 849.942 435.066 844.029 442.543C835.809 452.918 842.709 475.8 849.297 485.624C849.686 486.206 854.588 492.025 857.817 495.632C855.631 493.792 853.537 491.971 851.277 490.077C846.818 486.347 842.261 482.746 837.364 478.855L830.063 473.403C827.65 471.536 824.868 469.87 822.24 468.075C816.078 464.042 809.643 460.243 803.097 456.575C806.358 452.661 817.734 438.588 820.144 430.078C822.554 421.568 823.247 410.083 817.612 402.619C811.978 395.156 801.453 393.374 794.463 399.882C784.77 408.899 788.151 432.548 793.153 443.266C793.461 443.929 797.923 451.21 800.442 455.168C796.471 452.988 792.526 450.801 788.491 448.711C776.668 442.732 764.582 437.028 752.507 431.306C748.809 429.55 745.148 427.769 741.471 425.978C742.649 424.595 756.521 408.172 759.235 398.616C761.631 390.109 762.334 378.607 756.69 371.161C751.045 363.715 740.531 361.916 733.55 368.407C723.861 377.437 727.225 401.076 732.226 411.794C732.603 412.599 739.041 423.121 740.802 425.66C732.712 421.735 724.679 417.75 716.929 413.514C706.429 407.824 696.307 401.462 686.624 394.468C687.182 393.822 701.742 376.747 704.51 366.957C706.919 358.447 707.612 346.962 701.978 339.499C696.343 332.035 685.805 330.257 678.828 336.761C669.135 345.778 672.517 369.427 677.514 380.131C677.902 380.978 684.832 392.245 686.23 394.194C685.669 393.789 685.047 393.43 684.455 393.019C674.831 385.739 665.877 377.613 657.699 368.738C653.176 363.9 649.129 359.036 645.294 354.204C648.328 351.3 662.07 337.879 665.54 329.348C668.852 321.151 670.81 309.81 666.032 301.78C661.253 293.751 650.973 290.807 643.325 296.498C632.693 304.407 633.46 328.275 637.303 339.464C637.471 340.092 640.287 345.972 642.393 350.348C640.693 348.144 638.893 345.893 637.31 343.745C631.348 335.712 626.373 327.983 622.031 321.094C619.59 317.159 617.456 313.551 615.51 310.155C617.003 305.75 622.818 287.921 621.969 278.911C621.147 270.113 617.653 259.137 609.721 254.219C601.789 249.301 591.307 251.44 587.132 260.014C581.341 271.931 592.983 292.78 601.538 300.952C602.282 301.658 615.069 311.399 615.154 311.171L615.246 310.913C617.063 314.211 619.046 317.743 621.303 321.538C625.495 328.525 630.319 336.397 636.133 344.587C642.293 353.498 648.968 362.04 656.125 370.169C664.104 379.306 672.879 387.715 682.348 395.294L682.708 395.548C679.081 394.167 668.812 390.665 668.001 390.474C656.455 387.928 632.657 389.808 625.992 401.243C621.19 409.489 625.405 419.452 633.726 423.258C642.046 427.063 653.286 423.932 661.054 419.729C669.802 414.985 682.845 397.806 683.864 396.378C693.689 403.859 704.002 410.674 714.736 416.777C720.969 420.367 727.36 423.784 733.809 427.141C730.598 426.058 727.8 425.098 727.395 425.003C715.848 422.457 692.064 424.334 685.385 435.772C680.579 444.004 684.798 453.981 693.129 457.769C701.46 461.557 712.679 458.461 720.444 454.244C728.209 450.028 739.719 435.525 742.682 431.646C745.18 432.905 747.641 434.189 750.151 435.49C762.111 441.491 774.067 447.42 785.665 453.591C789.735 455.759 793.665 458.053 797.607 460.342C794.778 459.376 792.404 458.581 792.029 458.491C780.486 455.959 756.685 457.826 750.02 469.26C745.204 477.51 749.433 487.47 757.754 491.275C766.075 495.08 777.314 491.949 785.082 487.746C792.593 483.671 803.241 470.423 806.778 465.849C810.751 468.306 814.723 470.764 818.462 473.328C820.973 475.124 823.511 476.695 825.928 478.634L833.15 484.225C837.623 487.951 842.252 491.767 846.527 495.517C849.51 498.094 852.272 500.612 855.138 503.133C851.114 500.923 843.133 496.749 842.434 496.483C831.406 492.22 807.599 490.463 799.268 500.751C793.276 508.205 795.932 518.675 803.596 523.679C811.259 528.684 822.818 527.294 831.124 524.336C840.281 521.062 855.221 506.662 857.072 504.85C861.649 509.016 866.128 513.092 870.325 517.097Z" fill="#F8DACC" fill-opacity="0.69"/>
</g>
<path opacity="0.7" d="M293.957 90.1999C293.957 90.1999 236.265 73.2095 179.281 107.575C122.296 141.941 93.2818 206.014 68.3594 257.433C43.437 308.851 57.2452 359.21 100.422 380.363C143.598 401.517 173.288 365.753 234.082 361.087C294.876 356.421 311.166 364.009 361.82 328.41C412.474 292.811 422.111 214.152 382.705 158.24C343.299 102.328 293.957 90.1999 293.957 90.1999Z" fill="#FFF1EA"/>
<path d="M119.237 85.1646C118.047 84.1483 116.613 83.4585 115.076 83.1628C113.539 82.8671 111.952 82.9756 110.47 83.4776C108.987 83.9797 107.661 84.8582 106.62 86.027C105.579 87.1958 104.859 88.6149 104.532 90.1453C103.788 89.4123 102.862 88.8908 101.849 88.6343C100.837 88.3777 99.7741 88.3955 98.7707 88.6856C97.7673 88.9757 96.8592 89.5278 96.1399 90.2851C95.4205 91.0424 94.9157 91.9776 94.6775 92.9946C94.3523 92.5555 93.9284 92.1988 93.4402 91.9533C92.9519 91.7079 92.4129 91.5805 91.8664 91.5814C91.262 91.583 90.668 91.738 90.14 92.0321C89.9694 90.4145 89.2309 88.9097 88.0557 87.7852C86.8804 86.6608 85.3445 85.9894 83.721 85.8904C82.0974 85.7915 80.4914 86.2714 79.1883 87.2448C77.8851 88.2182 76.9693 89.6222 76.6036 91.2071C75.9757 90.5901 75.1795 90.1723 74.315 90.0062C73.4506 89.8401 72.5563 89.9329 71.7444 90.2732C70.9325 90.6135 70.2391 91.1859 69.7514 91.9188C69.2637 92.6516 69.0033 93.5122 69.0028 94.3925C68.9991 94.4459 68.9991 94.4996 69.0028 94.553H133.323C133.106 94.2027 132.817 93.9022 132.476 93.671C132.135 93.4397 131.749 93.283 131.343 93.2109C130.938 93.1388 130.521 93.1531 130.121 93.2527C129.721 93.3523 129.347 93.5351 129.022 93.7891C128.714 92.8762 128.126 92.0837 127.342 91.5242C126.557 90.9647 125.616 90.6667 124.653 90.6723C123.851 90.6714 123.062 90.8765 122.361 91.2682C122.302 90.593 122.166 89.9267 121.956 89.282" stroke="#C17D5B" stroke-miterlimit="10"/>
<path d="M280.268 140.14H149.078V333.85H280.268V140.14Z" fill="#C17D5B" stroke="#C17D5B" stroke-linecap="round" stroke-linejoin="round"/>
<path d="M271.828 149.532H157.518V324.67H271.828V149.532Z" fill="#F4BEA5" stroke="#C17D5B" stroke-linecap="round" stroke-linejoin="round"/>
<path d="M192.161 134.152H237.186C238.876 134.152 240.497 134.823 241.692 136.018C242.887 137.213 243.559 138.834 243.559 140.525V154.088H185.788V140.573C185.782 139.732 185.942 138.898 186.26 138.119C186.577 137.34 187.045 136.632 187.638 136.035C188.23 135.438 188.935 134.965 189.711 134.641C190.488 134.318 191.32 134.152 192.161 134.152Z" fill="#C17D5B" stroke="#C17D5B" stroke-linecap="round" stroke-linejoin="round"/>
<path d="M210.78 126H218.47C219.379 125.99 220.28 126.161 221.122 126.503C221.964 126.845 222.729 127.35 223.373 127.991C224.017 128.632 224.527 129.394 224.874 130.234C225.22 131.074 225.396 131.974 225.391 132.883V134.133H203.965V132.883C203.96 131.983 204.132 131.092 204.472 130.259C204.812 129.426 205.313 128.668 205.946 128.029C206.579 127.39 207.331 126.881 208.161 126.533C208.991 126.185 209.881 126.004 210.78 126Z" fill="#C17D5B" stroke="#C17D5B" stroke-linecap="round" stroke-linejoin="round"/>
<path d="M258 171.864L257.94 170.931L257.014 170.766C250.528 169.61 247.821 168.774 241.769 166.057L241.275 165.834L240.781 166.057C234.728 168.774 232.021 169.61 225.536 170.766L224.609 170.931L224.55 171.864C224.261 176.417 224.877 180.659 226.381 184.473C227.614 187.584 229.437 190.43 231.753 192.855C235.762 197.082 240.018 198.918 240.83 199.243L241.28 199.422L241.73 199.243C242.542 198.918 246.798 197.082 250.807 192.855C253.119 190.429 254.939 187.583 256.168 184.473C257.673 180.659 258.288 176.417 258 171.864ZM239.037 187.957L233.58 182.64L235.259 180.937L238.893 184.475L247.151 174.998L248.965 176.559L239.037 187.957Z" fill="#BD6C43"/>
<path d="M167.399 176.725H212.001" stroke="#C17D5B" stroke-linecap="round" stroke-linejoin="round"/>
<path d="M167.399 185.972H212.001" stroke="#C17D5B" stroke-linecap="round" stroke-linejoin="round"/>
<path d="M167.399 216.434H261.495" stroke="#C17D5B" stroke-linecap="round" stroke-linejoin="round"/>
<path d="M178.829 225.134H167.947V236.553H178.829V225.134Z" stroke="#C17D5B" stroke-linecap="round" stroke-linejoin="round"/>
<path d="M229.41 225.134H218.528V236.553H229.41V225.134Z" stroke="#C17D5B" stroke-linecap="round" stroke-linejoin="round"/>
<path d="M183.174 236.553H209.829" stroke="#C17D5B" stroke-linecap="round" stroke-linejoin="round"/>
<path d="M233.754 236.553H260.409" stroke="#C17D5B" stroke-linecap="round" stroke-linejoin="round"/>
<path d="M178.829 247.434H167.947V258.854H178.829V247.434Z" stroke="#C17D5B" stroke-linecap="round" stroke-linejoin="round"/>
<path d="M229.41 247.434H218.528V258.854H229.41V247.434Z" stroke="#C17D5B" stroke-linecap="round" stroke-linejoin="round"/>
<path d="M183.174 258.854H209.829" stroke="#C17D5B" stroke-linecap="round" stroke-linejoin="round"/>
<path d="M233.754 258.854H260.409" stroke="#C17D5B" stroke-linecap="round" stroke-linejoin="round"/>
<path d="M178.829 269.735H167.947V281.154H178.829V269.735Z" stroke="#C17D5B" stroke-linecap="round" stroke-linejoin="round"/>
<path d="M229.41 269.735H218.528V281.154H229.41V269.735Z" stroke="#C17D5B" stroke-linecap="round" stroke-linejoin="round"/>
<path d="M183.174 281.155H209.829" stroke="#C17D5B" stroke-linecap="round" stroke-linejoin="round"/>
<path d="M233.754 281.155H260.409" stroke="#C17D5B" stroke-linecap="round" stroke-linejoin="round"/>
<path d="M178.829 292.036H167.947V303.455H178.829V292.036Z" stroke="#C17D5B" stroke-linecap="round" stroke-linejoin="round"/>
<path d="M229.41 292.036H218.528V303.455H229.41V292.036Z" stroke="#C17D5B" stroke-linecap="round" stroke-linejoin="round"/>
<path d="M183.174 303.455H209.829" stroke="#C17D5B" stroke-linecap="round" stroke-linejoin="round"/>
<path d="M233.754 303.455H260.409" stroke="#C17D5B" stroke-linecap="round" stroke-linejoin="round"/>
<path d="M173.775 367.928H112.624V301.528L141.355 271.803L173.775 301.528V367.928Z" fill="#E7AF94" stroke="#C17D5B" stroke-linecap="round" stroke-linejoin="round"/>
<path d="M374.328 367.928H227.788V225.972L312.361 190.659L374.328 225.972V367.928Z" fill="#E7AF94" stroke="#C17D5B" stroke-linecap="round" stroke-linejoin="round"/>
<path d="M247.343 289.012H171.061V368.018H247.343V289.012Z" fill="#F4BEA5" stroke="#C17D5B" stroke-linecap="round" stroke-linejoin="round"/>
<path d="M335.396 301.528H293.492V368.018H335.396V301.528Z" fill="#ECA483" stroke="#C17D5B" stroke-linecap="round" stroke-linejoin="round"/>
<path d="M322.104 310.913H302.877V368.018H322.104V310.913Z" fill="#F4BEA5" stroke="#C17D5B" stroke-linecap="round" stroke-linejoin="round"/>
<path d="M319.072 310.913H305.909V368.018H319.072V310.913Z" fill="#C17D5B" stroke="#C17D5B" stroke-linecap="round" stroke-linejoin="round"/>
<path d="M319.071 361.953H283.043V365.622H319.071V361.953Z" fill="#F4BEA5" stroke="#C17D5B" stroke-linecap="round" stroke-linejoin="round"/>
<path d="M322.104 310.913H302.877V315.606H322.104V310.913Z" fill="#F4BEA5" stroke="#C17D5B" stroke-linecap="round" stroke-linejoin="round"/>
<path d="M159.33 310.913H128.491V368.018H159.33V310.913Z" fill="#F4BEA5" stroke="#C17D5B" stroke-linecap="round" stroke-linejoin="round"/>
<path d="M154.459 310.913H133.343V368.018H154.459V310.913Z" fill="#C17D5B" stroke="#C17D5B" stroke-linecap="round" stroke-linejoin="round"/>
<path d="M159.33 310.913H128.491V315.606H159.33V310.913Z" fill="#F4BEA5" stroke="#C17D5B" stroke-linecap="round" stroke-linejoin="round"/>
<path d="M268.717 300.186H244.211V344.546H268.717V300.186Z" fill="#ECA483" stroke="#C17D5B" stroke-linecap="round" stroke-linejoin="round"/>
<path d="M451.495 367.928H346.163V225.972L398.207 190.659L451.495 225.972V367.928Z" fill="#F4BEA5" stroke="#C17D5B" stroke-linecap="round" stroke-linejoin="round"/>
<path d="M452.817 226.439L398.108 190.948L345.726 226.747V230.207L398.486 194.407L452.817 229.899V226.439Z" fill="#F4BEA5" stroke="#C17D5B" stroke-linecap="round" stroke-linejoin="round"/>
<path d="M384.756 199.786L340.049 271.276L346.163 272.061L392.7 195.779L451.494 282.52L454.626 282.391L395.97 192.18L384.756 199.786Z" fill="#C17D5B" stroke="#C17D5B" stroke-linecap="round" stroke-linejoin="round"/>
<path d="M346.163 225.972H221.524L270.795 190.659L398.108 191.375L346.163 225.972Z" fill="#C17D5B" stroke="#C17D5B" stroke-linecap="round" stroke-linejoin="round"/>
<path d="M423.688 287.222H364.595V367.928H423.688V287.222Z" fill="#FCE7DD" stroke="#C17D5B" stroke-linecap="round" stroke-linejoin="round"/>
<path d="M428.38 287.222H369.287V367.928H428.38V287.222Z" fill="#F4BEA5" stroke="#C17D5B" stroke-linecap="round" stroke-linejoin="round"/>
<path d="M419.402 299.47H378.254V341.981H419.402V299.47Z" fill="#F4BEA5" stroke="#C17D5B" stroke-width="2" stroke-linecap="round" stroke-linejoin="round"/>
<path d="M407.483 299.47H390.185V341.981H407.483V299.47Z" fill="#F4BEA5" stroke="#C17D5B" stroke-width="2" stroke-linecap="round" stroke-linejoin="round"/>
<path d="M430.169 283.613H358.112V290.821H430.169V283.613Z" fill="#FCE7DD" stroke="#C17D5B" stroke-linecap="round" stroke-linejoin="round"/>
<path d="M434.862 283.613H362.805V290.821H434.862V283.613Z" fill="#F4BEA5" stroke="#C17D5B" stroke-linecap="round" stroke-linejoin="round"/>
<path d="M324.003 300.186H320.345V339.098H324.003V300.186Z" fill="#F4BEA5" stroke="#C17D5B" stroke-linecap="round" stroke-linejoin="round"/>
<path d="M334.193 300.186H330.534V339.098H334.193V300.186Z" fill="#F4BEA5" stroke="#C17D5B" stroke-linecap="round" stroke-linejoin="round"/>
<path d="M325.127 338.561H319.072V342.925H325.127V338.561Z" fill="#F4BEA5" stroke="#C17D5B" stroke-linecap="round" stroke-linejoin="round"/>
<path d="M335.387 338.561H329.332V342.925H335.387V338.561Z" fill="#F4BEA5" stroke="#C17D5B" stroke-linecap="round" stroke-linejoin="round"/>
<path d="M325.127 304.073H319.072V306.529H325.127V304.073Z" fill="#F4BEA5" stroke="#C17D5B" stroke-linecap="round" stroke-linejoin="round"/>
<path d="M335.387 304.073H329.332V306.529H335.387V304.073Z" fill="#F4BEA5" stroke="#C17D5B" stroke-linecap="round" stroke-linejoin="round"/>
<path d="M337.573 342.557H316.169V367.928H337.573V342.557Z" fill="#F4BEA5" stroke="#C17D5B" stroke-linecap="round" stroke-linejoin="round"/>
<path d="M272.376 300.186H268.718V339.098H272.376V300.186Z" fill="#F4BEA5" stroke="#C17D5B" stroke-linecap="round" stroke-linejoin="round"/>
<path d="M282.566 300.186H278.907V339.098H282.566V300.186Z" fill="#F4BEA5" stroke="#C17D5B" stroke-linecap="round" stroke-linejoin="round"/>
<path d="M273.5 338.561H267.445V342.925H273.5V338.561Z" fill="#F4BEA5" stroke="#C17D5B" stroke-linecap="round" stroke-linejoin="round"/>
<path d="M283.76 338.561H277.705V342.925H283.76V338.561Z" fill="#F4BEA5" stroke="#C17D5B" stroke-linecap="round" stroke-linejoin="round"/>
<path d="M273.5 304.073H267.445V306.529H273.5V304.073Z" fill="#F4BEA5" stroke="#C17D5B" stroke-linecap="round" stroke-linejoin="round"/>
<path d="M283.76 304.073H277.705V306.529H283.76V304.073Z" fill="#F4BEA5" stroke="#C17D5B" stroke-linecap="round" stroke-linejoin="round"/>
<path d="M285.956 342.557H264.552V367.928H285.956V342.557Z" fill="#F4BEA5" stroke="#C17D5B" stroke-linecap="round" stroke-linejoin="round"/>
<path d="M265.079 342.557H238.982V367.928H265.079V342.557Z" fill="#E7AF94" stroke="#C17D5B" stroke-linecap="round" stroke-linejoin="round"/>
<path d="M337.583 303.795H256.877L270.567 296.587H337.583V303.795Z" fill="#F4BEA5" stroke="#C17D5B" stroke-linecap="round" stroke-linejoin="round"/>
<path d="M378.652 310.277H419.005" stroke="#C17D5B" stroke-linecap="round" stroke-linejoin="round"/>
<path d="M378.652 320.367H419.005" stroke="#C17D5B" stroke-linecap="round" stroke-linejoin="round"/>
<path d="M378.652 330.458H419.005" stroke="#C17D5B" stroke-linecap="round" stroke-linejoin="round"/>
<path d="M137.786 270.431L108.538 302.155H110.984L139.705 271.803L137.786 270.431Z" fill="#C17D5B" stroke="#C17D5B" stroke-linecap="round" stroke-linejoin="round"/>
<path d="M168.715 300.743H248.904L308.981 270.431H137.786L168.715 300.743Z" fill="#C17D5B" stroke="#C17D5B" stroke-linecap="round" stroke-linejoin="round"/>
<path d="M350.726 270.431H304.288L221.524 300.743H262.981L350.726 270.431Z" fill="#C17D5B" stroke="#C17D5B" stroke-linecap="round" stroke-linejoin="round"/>
<path d="M454.626 273.801L400.076 190.102C399.862 189.766 399.565 189.491 399.214 189.302C398.863 189.113 398.469 189.017 398.071 189.022C397.672 189.028 397.282 189.136 396.937 189.336C396.592 189.535 396.303 189.82 396.099 190.162L347.017 271.226L252.035 301.787V306.688L349.244 275.461C349.791 275.301 350.261 274.948 350.567 274.467L398.177 195.809L454.626 282.42V273.801Z" fill="#F4BEA5" stroke="#C17D5B" stroke-linecap="round" stroke-linejoin="round"/>
<path d="M331.579 231.251H315.006V258.63H331.579V231.251Z" stroke="#C17D5B" stroke-width="2" stroke-linecap="round" stroke-linejoin="round"/>
<path d="M323.287 231.977V257.914" stroke="#C17D5B" stroke-linecap="round" stroke-linejoin="round"/>
<path d="M331.21 244.94H315.363" stroke="#C17D5B" stroke-linecap="round" stroke-linejoin="round"/>
<path d="M214.954 311.301H198.381V338.68H214.954V311.301Z" stroke="#C17D5B" stroke-width="2" stroke-linecap="round" stroke-linejoin="round"/>
<path d="M206.662 312.017V337.964" stroke="#C17D5B" stroke-linecap="round" stroke-linejoin="round"/>
<path d="M214.595 324.99H198.738" stroke="#C17D5B" stroke-linecap="round" stroke-linejoin="round"/>
<path d="M405.813 230.734H389.24V258.113H405.813V230.734Z" stroke="#C17D5B" stroke-width="2" stroke-linecap="round" stroke-linejoin="round"/>
<path d="M397.521 231.45V257.397" stroke="#C17D5B" stroke-linecap="round" stroke-linejoin="round"/>
<path d="M405.445 244.424H389.598" stroke="#C17D5B" stroke-linecap="round" stroke-linejoin="round"/>
<path d="M296.147 231.251H279.574V258.63H296.147V231.251Z" stroke="#C17D5B" stroke-width="2" stroke-linecap="round" stroke-linejoin="round"/>
<path d="M287.855 231.977V257.914" stroke="#C17D5B" stroke-linecap="round" stroke-linejoin="round"/>
<path d="M295.789 244.94H279.932" stroke="#C17D5B" stroke-linecap="round" stroke-linejoin="round"/>
<path d="M260.714 231.251H244.142V258.63H260.714V231.251Z" stroke="#C17D5B" stroke-width="2" stroke-linecap="round" stroke-linejoin="round"/>
<path d="M252.434 231.977V257.914" stroke="#C17D5B" stroke-linecap="round" stroke-linejoin="round"/>
<path d="M260.357 244.94H244.5" stroke="#C17D5B" stroke-linecap="round" stroke-linejoin="round"/>
<path d="M187.107 289.797H177.722L166.776 278.841H176.161L187.107 289.797Z" fill="#F4BEA5"/>
<path d="M216.046 289.797H206.662L195.716 278.841H205.101L216.046 289.797Z" fill="#F4BEA5"/>
<path d="M137.816 319.512H134.416V330.468H137.816V319.512Z" fill="#AC7055" stroke="#C17D5B" stroke-linecap="round" stroke-linejoin="round"/>
<path d="M141.594 319.512H138.194V330.468H141.594V319.512Z" fill="#AC7055" stroke="#C17D5B" stroke-linecap="round" stroke-linejoin="round"/>
<path d="M145.382 319.512H141.972V330.468H145.382V319.512Z" fill="#AC7055" stroke="#C17D5B" stroke-linecap="round" stroke-linejoin="round"/>
<path d="M149.17 319.512H145.76V330.468H149.17V319.512Z" fill="#AC7055" stroke="#C17D5B" stroke-linecap="round" stroke-linejoin="round"/>
<path d="M152.937 319.512H149.537V330.468H152.937V319.512Z" fill="#AC7055" stroke="#C17D5B" stroke-linecap="round" stroke-linejoin="round"/>
<path d="M252.036 301.17H167.93V306.688H252.036V301.17Z" fill="#F4BEA5" stroke="#C17D5B" stroke-linecap="round" stroke-linejoin="round"/>
<path d="M252.035 301.17H220.471V306.688H252.035V301.17Z" fill="#FCE7DD" stroke="#C17D5B" stroke-linecap="round" stroke-linejoin="round"/>
<path d="M167.929 301.17L137.786 270.431L108.538 302.155H112.624L137.896 275.213L167.929 306.688V301.17Z" fill="#FCE7DD" stroke="#C17D5B" stroke-linecap="round" stroke-linejoin="round"/>
<path d="M319.071 364.588H283.043V368.018H319.071V364.588Z" fill="#F4BEA5" stroke="#C17D5B" stroke-linecap="round" stroke-linejoin="round"/>
<path d="M345.726 226.747H221.048V230.197H345.726V226.747Z" fill="#FCE7DD" stroke="#C17D5B" stroke-linecap="round" stroke-linejoin="round"/>
<path d="M460.789 367.819C460.789 367.819 452.219 359.249 454.625 352.727C457.031 346.206 463.573 355.819 463.573 355.819C463.573 355.819 464.259 340.728 469.06 340.728C473.862 340.728 472.838 353.413 472.838 353.413C472.838 353.413 475.572 349.983 478.664 352.041C481.756 354.099 479.002 364.727 479.002 364.727C479.002 364.727 481.06 355.471 485.524 355.471C489.988 355.471 485.862 367.471 485.862 367.471" fill="#EAB196"/>
<path d="M458.741 367.471C458.741 367.471 453.253 359.935 454.963 358.523C456.673 357.112 459.079 361.267 459.079 361.267C459.079 361.267 457.369 351.326 462.847 350.978C468.325 350.63 466.277 362.977 466.277 362.977C466.277 362.977 469.02 355.432 471.764 357.489C474.508 359.547 473.484 365.721 473.484 365.721C473.484 365.721 473.822 360.581 477.252 360.581C480.682 360.581 482.74 364.687 482.74 364.687C482.74 364.687 485.822 359.547 488.228 361.267C490.634 362.987 488.228 367.779 488.228 367.779" stroke="#263238" stroke-linecap="round" stroke-linejoin="round"/>
<path d="M352.167 367.819C352.167 367.819 346.092 361.744 347.792 357.131C349.492 352.519 354.105 359.319 354.105 359.319C354.105 359.319 354.592 348.621 357.993 348.621C361.393 348.621 360.667 357.619 360.667 357.619C360.667 357.619 362.655 355.183 364.803 356.624C366.95 358.066 365.041 365.572 365.041 365.572C365.041 365.572 366.503 359.01 369.654 359.01C372.806 359.01 369.903 367.511 369.903 367.511" fill="#EAB196"/>
<path d="M350.706 367.57C350.706 367.57 346.819 362.232 348.042 361.257C349.265 360.283 350.955 363.246 350.955 363.246C350.955 363.246 349.742 356.197 353.629 355.959C357.516 355.72 356.055 364.459 356.055 364.459C356.055 364.459 357.993 359.11 359.942 360.571C361.89 362.033 361.155 366.397 361.155 366.397C361.155 366.397 361.403 362.759 363.829 362.759C366.255 362.759 367.716 365.671 367.716 365.671C367.716 365.671 369.903 362.023 371.603 363.246C373.303 364.469 371.603 367.859 371.603 367.859" stroke="#263238" stroke-linecap="round" stroke-linejoin="round"/>
<path d="M89.8972 367.819C89.8972 367.819 83.5345 361.456 85.3141 356.615C87.0936 351.773 91.9352 358.901 91.9352 358.901C91.9352 358.901 92.4522 347.707 96.0113 347.707C99.5704 347.707 98.8148 357.122 98.8148 357.122C98.8148 357.122 100.803 354.577 103.139 356.127C105.476 357.678 103.398 365.542 103.398 365.542C103.398 365.542 104.919 358.673 108.23 358.673C111.54 358.673 108.488 367.62 108.488 367.62" fill="#EAB196"/>
<path d="M88.3758 367.56C88.3758 367.56 84.2998 361.963 85.5723 360.939C86.8448 359.915 88.6244 362.977 88.6244 362.977C88.6244 362.977 87.3518 355.6 91.4279 355.342C95.504 355.084 93.973 364.289 93.973 364.289C93.973 364.289 95.9613 358.692 98.049 360.213C100.137 361.734 99.3216 366.327 99.3216 366.327C99.3216 366.327 99.58 362.51 102.125 362.51C104.67 362.51 106.201 365.562 106.201 365.562C106.201 365.562 108.488 361.744 110.267 363.017C112.047 364.289 110.267 367.859 110.267 367.859" stroke="#263238" stroke-linecap="round" stroke-linejoin="round"/>
<path d="M103.163 367.968H511.764" stroke="#263238" stroke-linecap="round" stroke-linejoin="round"/>
<path opacity="0.3" d="M508.97 78.5292C508.97 78.5292 502.29 45.8792 480.02 48.1092C469.9 49.1092 463.13 54.1892 457.26 62.1092C449.73 72.2192 447.03 66.3393 436.26 69.6593C426.62 72.6593 428.1 80.7892 422.16 82.2692C416.22 83.7492 411.78 77.0792 403.61 78.5592C395.44 80.0392 391 88.2092 391 88.2092H539.39C539.003 85.4335 537.814 82.8312 535.968 80.7224C534.122 78.6135 531.7 77.0901 529 76.3392C519.36 73.3392 514.9 80.7592 508.97 78.5292Z" stroke="#B05529" stroke-miterlimit="10"/>
<defs>
<linearGradient id="paint0_linear_1_4999" x1="23.4153" y1="11" x2="285.194" y2="694.331" gradientUnits="userSpaceOnUse">
<stop stop-color="#F3D1C1"/>
<stop offset="1" stop-color="#FFEEE6"/>
</linearGradient>
</defs>
</svg>
