<svg width="442" height="464" viewBox="0 0 442 464" fill="none" xmlns="http://www.w3.org/2000/svg">
<rect width="442" height="464" rx="5" fill="url(#paint0_linear_1_5513)"/>
<path d="M43.9109 76.2379C56.5917 52.8915 88.4917 25.6379 132.254 36.9899C176.017 48.3419 205.585 72.3571 200.74 114.139C195.896 155.922 170.437 190.638 115.6 191.654C60.7629 192.671 16.1029 127.432 43.9109 76.2379Z" fill="#EAB196"/>
<path d="M69.9268 167.583L76.8128 169.695L71.6956 163.667C74.5008 160.548 76.1069 156.534 76.2276 152.341" stroke="#A7542A" stroke-linecap="round" stroke-linejoin="round"/>
<path d="M61.5713 170.24C63.8794 169.504 66.0575 168.409 68.0261 166.997" stroke="#A7542A" stroke-linecap="round" stroke-linejoin="round"/>
<path d="M35 157.436C37.0284 167.209 47.826 173.228 59.1208 170.887" stroke="#A7542A" stroke-linecap="round" stroke-linejoin="round"/>
<path d="M36.6459 146.419C36.2124 147.242 35.8446 148.098 35.5459 148.979" stroke="#A7542A" stroke-linecap="round" stroke-linejoin="round"/>
<path d="M75.8983 148.953C73.8743 139.181 63.0723 133.161 51.7819 135.507C46.655 136.513 42.0345 139.264 38.7051 143.29" stroke="#A7542A" stroke-linecap="round" stroke-linejoin="round"/>
<path d="M63.9164 145.371C60.6648 141.829 56.234 144.284 54.3904 147.879C51.3456 145.239 46.3164 144.592 44.618 149.094C41.7492 156.675 51.5612 161.299 56.102 162.971C56.6168 163.165 57.0392 163.328 57.3912 163.446C57.6772 163.204 58.0116 162.896 58.4164 162.527C62.0068 159.284 69.3988 151.346 63.9164 145.371Z" stroke="#A7542A" stroke-linecap="round" stroke-linejoin="round"/>
<path d="M164.718 49.7675L158.069 46.9999L162.579 53.4943C159.497 56.328 157.52 60.1635 157 64.3183" stroke="#A7542A" stroke-linecap="round" stroke-linejoin="round"/>
<path d="M173.28 47.915C170.913 48.4282 168.641 49.307 166.544 50.5198" stroke="#A7542A" stroke-linecap="round" stroke-linejoin="round"/>
<path d="M198.505 63.2183C197.427 53.2875 187.258 46.2475 175.792 47.5103" stroke="#A7542A" stroke-linecap="round" stroke-linejoin="round"/>
<path d="M195.808 74.0246C196.311 73.2462 196.752 72.4298 197.128 71.5826" stroke="#A7542A" stroke-linecap="round" stroke-linejoin="round"/>
<path d="M157 67.7239C158.078 77.6459 168.246 84.6771 179.713 83.4319C184.912 82.9211 189.774 80.6282 193.476 76.9419" stroke="#A7542A" stroke-linecap="round" stroke-linejoin="round"/>
<path d="M182.575 73.7959C187.659 71.0745 189.574 64.747 186.853 59.663C184.131 54.5791 177.804 52.6639 172.72 55.3853C167.636 58.1067 165.721 64.4342 168.442 69.5182C171.164 74.6021 177.491 76.5173 182.575 73.7959Z" stroke="#A7542A" stroke-linecap="round" stroke-linejoin="round"/>
<path d="M173.681 65.9111L176.805 68.8591L182.014 59.8875" stroke="#A7542A" stroke-linecap="round" stroke-linejoin="round"/>
<path opacity="0.2" d="M112.854 142.248C112.854 142.248 110.961 165.156 113.7 170.713C116.438 176.27 117.81 214.238 116.582 219.014C116.582 219.014 125.399 221.237 128.887 218.078C132.375 214.919 137.741 217.961 146.579 214.887C155.417 211.814 149.041 143.593 149.041 143.593L149.312 118.775L134.737 105.79L112.854 142.248Z" fill="black" fill-opacity="0.7"/>
<path d="M124.607 153.266C124.552 153.43 124.463 153.58 124.346 153.707C122.464 155.489 114.429 157.467 107.526 158.892C101.81 160.078 96.8909 160.881 96.8909 160.881C96.8909 160.881 93.1047 129.416 93.1047 126.109C93.1047 122.801 87 69.2518 87 69.2518L101.634 68.619L121.049 67.7788C121.049 67.7788 121.166 69.2093 121.363 71.7086C122.644 87.6297 127.048 146.986 124.607 153.266Z" fill="#F4BEA5"/>
<path opacity="0.2" d="M124.606 153.266L107.526 156.76L101.075 158.084C99.3258 156.366 97.9911 156.334 97.9911 156.334L97.4593 151.522L96.6244 143.646L89.2754 74.3569C90.8707 73.2561 91.6577 70.8472 91.6577 70.8472L101.495 70.4909L118.539 69.8688L121.352 71.6874C122.644 87.6298 127.047 146.986 124.606 153.266Z" fill="black" fill-opacity="0.7"/>
<path d="M124.606 153.266L107.526 156.76L101.075 158.084C99.3258 156.366 97.9911 156.334 97.9911 156.334L97.4593 151.522L96.6244 143.646L89.2754 74.3569C90.8707 73.2561 91.6577 70.8472 91.6577 70.8472L101.495 70.4909L118.539 69.8688L121.352 71.6874C122.644 87.6298 127.047 146.986 124.606 153.266Z" stroke="#A7542A" stroke-linecap="round" stroke-linejoin="round"/>
<path d="M98.8955 132.867L104.596 132.857L104.601 134.638L103.017 135.202L99.3635 135.601L98.8955 132.867Z" fill="#F4BEA5" stroke="#A7542A" stroke-linecap="round" stroke-linejoin="round"/>
<path d="M99.2461 136.537L103.436 136.393L104.511 136.903L104.457 139.27L99.5652 139.323L99.2461 136.537Z" fill="#F4BEA5" stroke="#A7542A" stroke-linecap="round" stroke-linejoin="round"/>
<path d="M99.9162 140.317L104.702 139.972L104.649 141.764L102.336 142.583L99.8896 142.444L99.9162 140.317Z" fill="#F4BEA5" stroke="#A7542A" stroke-linecap="round" stroke-linejoin="round"/>
<path d="M100.204 143.338L104.069 143.535L104.42 144.524L103.857 145.614L100.4 145.837L99.8047 144.151L100.204 143.338Z" fill="#F4BEA5" stroke="#A7542A" stroke-linecap="round" stroke-linejoin="round"/>
<path d="M104.66 146.8L105.191 148.347C105.276 148.512 105.32 148.694 105.32 148.879C105.32 149.064 105.276 149.246 105.191 149.411C105.092 149.524 104.966 149.609 104.825 149.66C104.683 149.71 104.531 149.723 104.383 149.698C104.085 149.671 103.793 149.57 103.495 149.554C102.596 149.517 101.772 150.256 100.889 150.086C100.544 149.129 99.6715 147.725 100.852 147.294C101.07 147.225 104.787 147.151 104.66 146.8Z" fill="#F4BEA5" stroke="#A7542A" stroke-linecap="round" stroke-linejoin="round"/>
<path d="M104.644 151.155C104.728 151.523 104.788 151.896 104.824 152.272C104.878 152.509 104.871 152.757 104.802 152.99C104.733 153.224 104.605 153.436 104.431 153.606C104.204 153.731 103.95 153.798 103.692 153.803L100.618 154.08C100.573 153.499 100.564 152.917 100.592 152.335C100.772 151.644 100.645 151.703 101.299 151.421C102.336 150.979 103.58 151.681 104.644 151.155Z" fill="#F4BEA5" stroke="#A7542A" stroke-linecap="round" stroke-linejoin="round"/>
<path d="M93.4658 75.9309C93.4658 75.9309 94.6251 87.1353 94.6783 89.3528" stroke="#A7542A" stroke-linecap="round" stroke-linejoin="round"/>
<path d="M95.9648 76.0532L96.5073 82.2271" stroke="#A7542A" stroke-linecap="round" stroke-linejoin="round"/>
<path d="M104.628 73.7188L105.33 80.9561L106.314 81.0518L105.995 73.7879L104.628 73.7188Z" fill="#F4BEA5" stroke="#A7542A" stroke-linecap="round" stroke-linejoin="round"/>
<path opacity="0.2" d="M124.606 153.266C124.551 153.43 124.462 153.58 124.345 153.707C122.463 155.489 114.428 157.467 107.526 158.892V154.106L97.4804 151.532L95.9648 151.144L96.6455 143.657L99.2459 115.048L101.517 70.5121L101.612 68.619L121.048 67.7788C121.048 67.7788 121.165 69.2093 121.362 71.7086C122.644 87.6297 127.047 146.986 124.606 153.266Z" fill="black" fill-opacity="0.7"/>
<path d="M124.607 153.266C124.552 153.43 124.463 153.58 124.346 153.707C122.464 155.489 114.429 157.467 107.526 158.892C101.81 160.078 96.8909 160.881 96.8909 160.881C96.8909 160.881 93.1047 129.416 93.1047 126.109C93.1047 122.801 87 69.2518 87 69.2518L101.634 68.619L121.049 67.7788C121.049 67.7788 121.166 69.2093 121.363 71.7086C122.644 87.6297 127.048 146.986 124.607 153.266Z" stroke="#A7542A" stroke-linecap="round" stroke-linejoin="round"/>
<path d="M134.907 224.666C135.029 223.544 133.264 207.448 133.232 205.698C133.147 200.912 131.791 194.632 131.791 194.632C129.898 189.793 128.425 178.642 123.373 171.49C118.321 164.337 118.326 155.925 117.486 148.783C116.646 141.641 116.853 142.258 117.066 135.92C117.219 131.158 117.008 126.392 116.433 121.663C116.013 117.451 115.173 110.044 116.433 106.593C117.693 103.141 120.99 102.338 124.601 105.795C128.212 109.251 129.685 123.423 129.685 125.173C129.685 126.922 129.685 132.389 130.95 134.494C130.95 134.494 138.103 130.836 138.103 129.826C138.103 128.815 137.89 119.887 138.943 119.408L134.737 105.795L142.713 102.961C144.215 104.307 145.512 105.866 146.563 107.587C147.464 109.012 148.217 110.525 148.813 112.102C152.179 121.03 157.587 127.257 158.703 129.826C159.82 132.394 158.703 152.793 158.703 156.584C158.703 160.376 156.257 177.855 156.321 180.796C156.369 182.923 157.805 190.835 159.235 196.903C159.767 199.243 162.995 216.195 163.489 217.541L134.907 224.666Z" fill="#F7D4C2"/>
<path opacity="0.7" d="M193.976 184.613C198.226 197.1 168.948 215.261 168.948 215.261C141.285 231.02 103.264 217.353 94.787 211.01C86.3106 204.667 78.3768 207.487 60.8609 202.349" stroke="#A7542A"/>
<path opacity="0.4" d="M141.203 118.509C141.15 119.653 142.516 128.767 142.516 128.767C143.463 131.038 138.294 138.781 138.294 138.781C137.177 139.408 136.699 143.301 136.699 143.301C133.2 142.524 125.186 134.468 125.186 134.468C125.186 134.468 124.24 137.77 123.176 145.943C122.112 154.117 128.855 173.532 131.727 186.937C134.598 200.343 133.232 205.682 133.232 205.682C133.147 200.896 131.791 194.616 131.791 194.616C129.898 189.777 128.425 178.626 123.373 171.474C118.321 164.321 118.326 155.925 117.486 148.783C116.646 141.641 116.853 142.258 117.066 135.92C117.219 131.158 117.008 126.392 116.433 121.663C116.013 117.451 115.173 110.044 116.433 106.593C117.693 103.141 120.99 102.338 124.601 105.795C128.212 109.251 129.685 123.423 129.685 125.173C129.685 126.922 129.685 132.389 130.95 134.494C130.95 134.494 138.103 130.836 138.103 129.826C138.103 128.815 137.89 119.887 138.943 119.408L134.737 105.795L142.713 102.961C144.215 104.307 145.512 105.866 146.563 107.587C143.984 112.745 141.256 117.797 141.203 118.509Z" fill="#F4BEA5"/>
<path opacity="0.4" d="M154.615 182.205C154.966 179.014 156.013 171.431 156.678 166.698C155.864 170.394 154.551 172.266 154.551 172.266C154.551 172.266 156.816 145.146 157.039 143.492C157.263 141.838 159.549 134.404 158.709 129.799C159.826 132.362 158.709 152.766 158.709 156.558C158.709 160.349 156.263 177.828 156.327 180.769C156.375 182.896 158.656 196.451 160.086 202.518C157.013 198.051 154.264 185.411 154.615 182.205Z" fill="#F4BEA5"/>
<path d="M163.479 217.514C161.799 212.675 156.401 183.694 156.337 180.769C156.274 177.844 158.72 160.344 158.72 156.558C158.72 152.771 159.836 132.362 158.72 129.799C157.603 127.236 152.195 121.003 148.829 112.075C147.557 108.584 145.465 105.449 142.729 102.934L134.753 105.768L138.959 119.382C137.896 119.86 138.119 128.789 138.119 129.799C138.119 130.809 130.967 134.468 130.967 134.468C129.701 132.341 129.701 126.895 129.701 125.146C129.701 123.396 128.228 109.219 124.617 105.768C121.007 102.317 117.704 103.109 116.449 106.566C115.194 110.022 116.029 117.425 116.449 121.636C117.025 126.371 117.237 131.142 117.082 135.909C116.87 142.248 116.657 141.62 117.502 148.772C118.348 155.925 118.343 164.337 123.389 171.49C128.436 178.642 129.914 189.793 131.807 194.632C131.807 194.632 135.38 220.46 134.923 224.666" stroke="#A7542A" stroke-linecap="round" stroke-linejoin="round"/>
<path d="M130.95 134.468C130.95 134.468 132.21 140.355 135.05 143.301" stroke="#A7542A" stroke-linecap="round" stroke-linejoin="round"/>
<path d="M131.716 137.153C131.716 137.153 137.034 138.781 139.256 138.882" stroke="#A7542A" stroke-linecap="round" stroke-linejoin="round"/>
<path d="M138.103 129.799C138.103 129.799 141.889 128.049 144.308 129.102" stroke="#A7542A" stroke-linecap="round" stroke-linejoin="round"/>
<path d="M138.943 119.382C138.943 119.382 141.889 119.11 142.517 117.637" stroke="#A7542A" stroke-linecap="round" stroke-linejoin="round"/>
<path d="M124.346 172.989C124.346 172.989 130.004 180.014 131.684 183.587" stroke="#A7542A" stroke-linecap="round" stroke-linejoin="round"/>
<path d="M157.247 142.248C156.3 147.826 155.034 163.077 154.614 165.81" stroke="#A7542A" stroke-linecap="round" stroke-linejoin="round"/>
<path d="M159.055 131.729C159.214 136.781 157.991 139.408 157.991 139.408" stroke="#A7542A" stroke-linecap="round" stroke-linejoin="round"/>
<path d="M115.561 61.0413L154.55 71.3257C154.55 71.3257 140.847 112.915 138.066 118.073L133.418 154.329C133.418 154.329 108.51 153.234 97.0557 149.772C97.0557 149.772 104.298 112.017 104.687 106.981C105.075 101.945 115.561 61.0413 115.561 61.0413Z" fill="#F4BEA5"/>
<path d="M107.176 104.747L115.769 68.0074C115.769 68.0074 119.465 66.1728 120.895 64.4977L148.829 72.4423C148.829 72.4423 148.914 75.1809 150.515 76.9358L136.418 117.558L132.998 147.501C132.998 147.501 128.452 147.863 128.016 151.224C128.016 151.224 113.275 152.021 103.389 149.416C103.389 149.416 102.225 145.784 100.443 143.487L107.176 104.747Z" stroke="#A7542A" stroke-linecap="round" stroke-linejoin="round"/>
<path d="M114.328 106.656C114.328 106.656 116.864 97.0845 125.798 98.8021C134.732 100.52 129.685 112.314 129.685 112.314C129.685 112.314 129.738 121.833 122.49 120.52C116.205 119.382 112.855 115.93 114.328 106.656Z" fill="#F4BEA5" stroke="#A7542A" stroke-linecap="round" stroke-linejoin="round"/>
<path d="M119.167 71.5011C119.167 71.5011 116.465 82.4396 115.769 84.5454" stroke="#A7542A" stroke-linecap="round" stroke-linejoin="round"/>
<path d="M121.48 72.4476L119.906 78.446" stroke="#A7542A" stroke-linecap="round" stroke-linejoin="round"/>
<path d="M141.204 76.6538L146.58 78.5469L145.99 80.2326H144.309L140.73 79.3924L141.204 76.6538Z" fill="#F4BEA5" stroke="#A7542A" stroke-linecap="round" stroke-linejoin="round"/>
<path d="M140.311 80.2328L144.309 81.4931L145.15 82.3333L144.309 84.5454L139.678 82.9661L140.311 80.2328Z" fill="#F4BEA5" stroke="#A7542A" stroke-linecap="round" stroke-linejoin="round"/>
<path d="M139.677 84.0188L144.309 85.295L143.655 86.9648H141.203L138.943 86.0182L139.677 84.0188Z" fill="#F4BEA5" stroke="#A7542A" stroke-linecap="round" stroke-linejoin="round"/>
<path d="M138.944 86.9648L142.517 88.4378V89.4854L141.624 90.3309L138.295 89.3844V87.5923L138.944 86.9648Z" fill="#F4BEA5" stroke="#A7542A" stroke-linecap="round" stroke-linejoin="round"/>
<path d="M141.991 91.7135V93.3514C142.019 93.5317 142.004 93.7161 141.947 93.8897C141.891 94.0633 141.795 94.2213 141.667 94.3511C141.534 94.4232 141.386 94.461 141.236 94.461C141.085 94.461 140.937 94.4232 140.805 94.3511C140.534 94.2235 140.273 94.032 140.018 93.9204C139.183 93.5853 138.157 94.0054 137.359 93.5587C137.359 92.5431 137.003 90.9318 138.258 90.8999C138.465 90.9159 141.991 92.0857 141.991 91.7135Z" fill="#F4BEA5" stroke="#A7542A" stroke-linecap="round" stroke-linejoin="round"/>
<path d="M140.517 95.8136C140.477 96.1885 140.409 96.5599 140.315 96.9249C140.198 97.3982 139.969 97.9247 139.496 98.0523C139.241 98.0946 138.98 98.0727 138.736 97.9885L135.747 97.2015C135.892 96.6419 136.069 96.0915 136.279 95.553C136.683 94.9627 136.545 94.9734 137.252 94.9255C138.401 94.8776 139.336 95.9571 140.517 95.8136Z" fill="#F4BEA5" stroke="#A7542A" stroke-linecap="round" stroke-linejoin="round"/>
<path d="M130.425 73.1868L128.633 80.2327L129.526 80.6528L131.685 73.7079L130.425 73.1868Z" fill="#F4BEA5" stroke="#A7542A" stroke-linecap="round" stroke-linejoin="round"/>
<path d="M107.968 120.504L113.488 121.934L113.041 123.657L111.366 123.806L107.729 123.269L107.968 120.504Z" fill="#F4BEA5" stroke="#A7542A" stroke-linecap="round" stroke-linejoin="round"/>
<path d="M107.383 124.146L111.472 125.061L112.387 125.827L111.738 128.103L106.989 126.922L107.383 124.146Z" fill="#F4BEA5" stroke="#A7542A" stroke-linecap="round" stroke-linejoin="round"/>
<path d="M107.08 127.975L111.802 128.847L111.292 130.565L108.851 130.777L106.517 130.028L107.08 127.975Z" fill="#F4BEA5" stroke="#A7542A" stroke-linecap="round" stroke-linejoin="round"/>
<path d="M106.596 130.969L110.287 132.133L110.377 133.181L109.558 134.096L106.16 133.436L106.006 131.655L106.596 130.969Z" fill="#F4BEA5" stroke="#A7542A" stroke-linecap="round" stroke-linejoin="round"/>
<path d="M110.036 135.441L110.18 137.073C110.223 137.251 110.224 137.437 110.183 137.615C110.141 137.794 110.058 137.96 109.94 138.1C109.815 138.183 109.671 138.233 109.521 138.245C109.372 138.257 109.221 138.231 109.084 138.169C108.802 138.068 108.553 137.898 108.26 137.813C107.404 137.547 106.415 138.052 105.601 137.674C105.506 136.664 105.022 135.09 106.266 134.968C106.457 134.957 110.068 135.813 110.036 135.441Z" fill="#F4BEA5" stroke="#A7542A" stroke-linecap="round" stroke-linejoin="round"/>
<path d="M108.925 139.653C108.917 140.039 108.882 140.425 108.818 140.807C108.739 141.285 108.558 141.833 108.1 141.998C107.849 142.062 107.586 142.062 107.335 141.998L104.293 141.466C104.395 140.895 104.532 140.33 104.702 139.775C105.053 139.153 104.915 139.174 105.617 139.068C106.734 138.903 107.755 139.897 108.925 139.653Z" fill="#F4BEA5" stroke="#A7542A" stroke-linecap="round" stroke-linejoin="round"/>
<path d="M130.951 144.816C130.951 144.816 132.217 130.703 132.217 129.283" stroke="#A7542A" stroke-linecap="round" stroke-linejoin="round"/>
<path d="M128.425 144.183C128.425 144.183 128.957 136.845 129.052 135.569" stroke="#A7542A" stroke-linecap="round" stroke-linejoin="round"/>
<path d="M118.561 138.881L116.854 147.236H118.561L119.8 138.881H118.561Z" fill="#F4BEA5" stroke="#A7542A" stroke-linecap="round" stroke-linejoin="round"/>
<path opacity="0.2" d="M138.157 117.866C134.466 117.095 131.175 115.962 128.739 114.33C128.739 114.33 130.505 119.403 136.764 128.049L133.397 154.329C133.397 154.329 117.141 153.617 104.857 151.516C108.633 140.881 115.493 120.727 114.679 116.733C113.578 111.251 117.466 104.779 117.466 104.779C129.755 102.567 141.672 93.277 149.85 85.4227C145.687 97.7332 140.002 114.218 138.157 117.866Z" fill="black" fill-opacity="0.7"/>
<path d="M115.561 61.0413L154.55 71.3257C154.55 71.3257 140.847 112.915 138.066 118.073L133.418 154.329C133.418 154.329 108.51 153.234 97.0557 149.772C97.0557 149.772 104.298 112.017 104.687 106.981C105.075 101.945 115.561 61.0413 115.561 61.0413Z" stroke="#A7542A" stroke-linecap="round" stroke-linejoin="round"/>
<path d="M137.177 143.832L131.684 183.587C130.461 180.987 127.127 176.552 125.404 174.335C124.766 173.505 124.341 172.989 124.341 172.989L123.367 171.49C118.321 164.337 118.321 155.925 117.481 148.772C116.641 141.62 116.848 142.248 117.061 135.909C117.215 131.151 117.006 126.389 116.433 121.663C116.013 117.451 115.173 110.044 116.433 106.593C117.05 104.902 118.161 103.849 119.555 103.625C120.948 103.402 122.745 104.04 124.601 105.795C128.212 109.246 129.685 123.423 129.685 125.173C129.685 126.922 129.685 132.389 130.95 134.494C130.95 134.468 134.343 140.886 137.177 143.832Z" fill="#F6D4C2"/>
<path opacity="0.4" d="M122.953 168.655C124.101 170.123 124.883 172.239 125.404 174.335C124.766 173.505 124.341 172.989 124.341 172.989L123.367 171.49C118.321 164.337 118.321 155.925 117.481 148.773C116.641 141.62 116.848 142.248 117.061 135.909C117.215 131.151 117.006 126.389 116.433 121.663C116.013 117.451 115.173 110.044 116.433 106.593C117.05 104.902 118.161 103.849 119.555 103.625C122.214 104.38 124.872 107.087 125.798 111.719C127.393 119.493 120.198 113.213 118.534 119.802C116.869 126.39 119.289 128.166 120.283 129.826C121.278 131.485 120.007 135.143 118.534 140.057C117.061 144.97 119.799 164.619 122.953 168.655Z" fill="#F4BEA5"/>
<path d="M137.177 143.832C134.337 140.886 130.95 134.468 130.95 134.468C129.685 132.341 129.685 126.895 129.685 125.146C129.685 123.396 128.212 109.219 124.601 105.768C120.99 102.317 117.688 103.109 116.433 106.566C115.178 110.022 116.013 117.425 116.433 121.636C117.008 126.371 117.22 131.142 117.066 135.909C116.853 142.248 116.64 141.62 117.486 148.772C118.331 155.925 118.326 164.337 123.372 171.49L124.346 172.989C124.346 172.989 130.004 180.014 131.684 183.587" stroke="#A7542A" stroke-linecap="round" stroke-linejoin="round"/>
<path d="M118.561 127.007C118.561 127.007 123.384 124.513 125.798 124.726" stroke="#A7542A" stroke-linecap="round" stroke-linejoin="round"/>
<path d="M287.362 54.7291L228.027 80.8988C225.76 81.8985 224.733 84.5462 225.733 86.8128L241.672 122.952C242.672 125.219 245.32 126.246 247.586 125.246L306.921 99.0765C309.188 98.0768 310.215 95.4291 309.215 93.1625L293.275 57.0229C292.276 54.7564 289.628 53.7294 287.362 54.7291Z" stroke="#DDA081" stroke-linecap="round" stroke-linejoin="round"/>
<path d="M228.309 92.6459L295.852 62.8572" stroke="#DDA081" stroke-linecap="round" stroke-linejoin="round"/>
<path d="M293.657 76.7019L282.746 81.514L289.675 97.2246L300.586 92.4124L293.657 76.7019Z" stroke="#DDA081" stroke-linecap="round" stroke-linejoin="round"/>
<path d="M288.085 82.9603C289.722 79.4531 294.185 80.303 295.64 89.4356L299.629 90.2384L300.571 92.3794L289.669 97.1928L288.401 94.3312L292.247 91.5105C292.247 91.5105 286.547 86.267 288.085 82.9603Z" stroke="#DDA081" stroke-linecap="round" stroke-linejoin="round"/>
<path d="M268.767 109.615C268.767 109.615 277.011 107.478 274.215 106.468C271.418 105.458 270.62 103.892 272.616 103.327C274.612 102.761 279.002 105.707 278.106 103.431C277.209 101.155 279.069 102.293 279.387 102.372C279.704 102.45 281.825 100.859 282.014 101.105C282.202 101.351 282.247 102.168 289.667 98.9013" stroke="#DDA081" stroke-linecap="round" stroke-linejoin="round"/>
<path d="M236.244 98.3644L269.32 83.7742" stroke="#DDA081" stroke-linecap="round" stroke-linejoin="round"/>
<path d="M237.903 102.113L257.386 93.5178" stroke="#DDA081" stroke-linecap="round" stroke-linejoin="round"/>
<path d="M240.821 108.727L267.997 96.7401" stroke="#DDA081" stroke-linecap="round" stroke-linejoin="round"/>
<path d="M242.706 80.5651L275.871 65.9301" stroke="#DDA081" stroke-linecap="round" stroke-linejoin="round"/>
<defs>
<linearGradient id="paint0_linear_1_5513" x1="11.2373" y1="11" x2="393.305" y2="489.629" gradientUnits="userSpaceOnUse">
<stop stop-color="#F3D1C1"/>
<stop offset="1" stop-color="#FFEEE6"/>
</linearGradient>
</defs>
</svg>
