<svg width="22" height="16" viewBox="0 0 22 16" fill="none" xmlns="http://www.w3.org/2000/svg">
<path d="M1.66699 6.83301H20.3337" stroke="#3B3A5D" stroke-width="1.5" stroke-linecap="round" stroke-linejoin="round"/>
<path d="M19.167 12.667V14.417C19.167 14.5717 19.0932 14.7201 18.962 14.8295C18.8307 14.9389 18.6526 15.0003 18.467 15.0003H16.367C16.1813 15.0003 16.0033 14.9389 15.872 14.8295C15.7407 14.7201 15.667 14.5717 15.667 14.417V12.667" stroke="#3B3A5D" stroke-width="1.5" stroke-linecap="round" stroke-linejoin="round"/>
<path d="M6.33398 12.667V14.417C6.33398 14.5717 6.26023 14.7201 6.12896 14.8295C5.99768 14.9389 5.81964 15.0003 5.63398 15.0003H3.53398C3.34833 15.0003 3.17029 14.9389 3.03901 14.8295C2.90773 14.7201 2.83398 14.5717 2.83398 14.417V12.667" stroke="#3B3A5D" stroke-width="1.5" stroke-linecap="round" stroke-linejoin="round"/>
<path d="M5.16699 9.16699H7.50033" stroke="#3B3A5D" stroke-width="1.5" stroke-linecap="round" stroke-linejoin="round"/>
<path d="M14.5 9.16699H16.8333" stroke="#3B3A5D" stroke-width="1.5" stroke-linecap="round" stroke-linejoin="round"/>
<path d="M19.1673 7.17647L16.6237 1.41176C16.571 1.28981 16.4842 1.18596 16.3739 1.11285C16.2636 1.03974 16.1347 1.00053 16.0027 1H5.99857C5.86661 1.00053 5.73766 1.03974 5.6274 1.11285C5.51714 1.18596 5.43034 1.28981 5.37756 1.41176L2.83398 7.17647V12.6667H19.1673V7.17647Z" stroke="#3B3A5D" stroke-width="1.5" stroke-linecap="round" stroke-linejoin="round"/>
</svg>
