<svg width="19" height="19" viewBox="0 0 19 19" fill="none" xmlns="http://www.w3.org/2000/svg">
<path d="M18.9555 14.3408C18.7341 14.105 17.9525 13.4077 16.5156 12.4853C15.068 11.5547 14.0005 10.9746 13.6943 10.8393C13.6673 10.8273 13.6376 10.8229 13.6083 10.8266C13.579 10.8302 13.5513 10.8418 13.5281 10.86C13.0348 11.2447 12.2044 11.9513 12.1599 11.9895C11.8723 12.2359 11.8723 12.2359 11.6369 12.1591C11.223 12.0234 9.93706 11.3406 8.81654 10.2175C7.69602 9.09445 6.97799 7.77673 6.84227 7.36321C6.76466 7.12741 6.76466 7.12741 7.01192 6.83986C7.05009 6.79532 7.75709 5.96491 8.14177 5.47208C8.16001 5.44888 8.17159 5.42114 8.17525 5.39184C8.17891 5.36255 8.17452 5.33282 8.16255 5.30583C8.02726 4.9992 7.44706 3.93212 6.51655 2.48462C5.59282 1.04814 4.89642 0.266495 4.66061 0.0451066C4.63897 0.0246867 4.61222 0.0104815 4.58318 0.00398773C4.55415 -0.00250602 4.5239 -0.00104779 4.49562 0.00820859C3.67134 0.291469 2.87603 0.652905 2.12056 1.08758C1.39126 1.51154 0.700798 1.99904 0.057224 2.54442C0.0347584 2.56352 0.0179154 2.58837 0.00850116 2.61631C-0.000913064 2.64426 -0.00254329 2.67424 0.00378519 2.70304C0.0924259 3.11612 0.51612 4.84058 1.83089 7.22919C3.17237 9.66701 4.10204 10.916 6.07207 12.8793C8.0421 14.8425 9.33057 15.8281 11.771 17.1696C14.1596 18.4844 15.8849 18.9085 16.2971 18.9963C16.326 19.0025 16.356 19.0009 16.384 18.9915C16.412 18.9821 16.437 18.9653 16.4562 18.9428C17.0015 18.2993 17.4888 17.6088 17.9126 16.8795C18.3472 16.124 18.7086 15.3287 18.992 14.5045C19.0011 14.4764 19.0025 14.4464 18.996 14.4176C18.9896 14.3889 18.9756 14.3623 18.9555 14.3408V14.3408Z" fill="#3B3A5D"/>
</svg>
