<svg width="442" height="464" viewBox="0 0 442 464" fill="none" xmlns="http://www.w3.org/2000/svg">
<rect width="442" height="464" rx="5" fill="url(#paint0_linear_1_5484)"/>
<path opacity="0.3" d="M397.96 69.2222C397.96 69.2222 393.999 49.7342 380.792 51.0652C374.79 51.6621 370.775 54.6942 367.294 59.4215C362.829 65.4559 361.228 61.9463 354.841 63.9279C349.124 65.7186 350.002 70.5712 346.479 71.4545C342.956 72.3379 340.323 68.3568 335.478 69.2401C330.633 70.1235 328 75 328 75H416C415.771 73.3432 415.065 71.79 413.971 70.5313C412.876 69.2725 411.44 68.3632 409.838 67.9151C404.122 66.1244 401.477 70.5533 397.96 69.2222Z" stroke="#B05529" stroke-miterlimit="10"/>
<path opacity="0.3" d="M341.96 113.222C341.96 113.222 337.999 93.7342 324.792 95.0652C318.79 95.6621 314.775 98.6942 311.294 103.421C306.829 109.456 305.228 105.946 298.841 107.928C293.124 109.719 294.002 114.571 290.479 115.455C286.956 116.338 284.323 112.357 279.478 113.24C274.633 114.124 272 119 272 119H360C359.771 117.343 359.065 115.79 357.971 114.531C356.876 113.273 355.44 112.363 353.838 111.915C348.122 110.124 345.477 114.553 341.96 113.222Z" stroke="#B05529" stroke-miterlimit="10"/>
<path d="M59.6272 154.109C59.2459 154.487 58.9432 154.936 58.7367 155.432C58.5302 155.928 58.4238 156.459 58.4238 156.996C58.4238 157.533 58.5302 158.065 58.7367 158.561C58.9432 159.056 59.2459 159.506 59.6272 159.884C60.3901 160.637 61.419 161.06 62.4911 161.06C63.5632 161.06 64.5921 160.637 65.355 159.884L68.2189 157.02L65.355 154.156C64.5984 153.397 63.573 152.966 62.5009 152.957C61.4288 152.948 60.3963 153.362 59.6272 154.109ZM63.7798 155.712C64.035 155.967 64.2088 156.292 64.2793 156.646C64.3498 157 64.3138 157.366 64.1758 157.7C64.0378 158.033 63.8041 158.318 63.5042 158.518C63.2044 158.719 62.8518 158.826 62.4911 158.826C62.1304 158.826 61.7778 158.719 61.4779 158.518C61.178 158.318 60.9443 158.033 60.8064 157.7C60.6684 157.366 60.6324 157 60.7029 156.646C60.7734 156.292 60.9472 155.967 61.2023 155.712C61.5442 155.371 62.0078 155.179 62.4911 155.179C62.9744 155.179 63.4379 155.371 63.7798 155.712Z" fill="#C17D5B"/>
<path d="M196.093 87.6848C196.093 88.5816 196.359 89.4584 196.857 90.2041C197.355 90.9498 198.063 91.531 198.892 91.8742C199.721 92.2174 200.632 92.3072 201.512 92.1322C202.392 91.9573 203.2 91.5254 203.834 90.8912C204.468 90.257 204.9 89.4491 205.075 88.5695C205.25 87.6898 205.16 86.7781 204.817 85.9495C204.473 85.1209 203.892 84.4127 203.147 83.9145C202.401 83.4162 201.524 83.1503 200.627 83.1503C199.425 83.1503 198.271 83.628 197.421 84.4784C196.571 85.3288 196.093 86.4822 196.093 87.6848ZM203.577 87.6848C203.577 88.2682 203.404 88.8386 203.08 89.3237C202.756 89.8088 202.295 90.1868 201.756 90.4101C201.217 90.6334 200.624 90.6918 200.052 90.578C199.48 90.4641 198.954 90.1832 198.541 89.7707C198.129 89.3581 197.848 88.8325 197.734 88.2603C197.62 87.6881 197.679 87.095 197.902 86.5559C198.125 86.0169 198.503 85.5562 198.988 85.2321C199.474 84.908 200.044 84.735 200.627 84.735C201.41 84.735 202.16 85.0458 202.713 85.599C203.266 86.1522 203.577 86.9024 203.577 87.6848Z" fill="#C17D5B"/>
<path d="M200.628 85.8899C200.983 85.8899 201.33 85.9952 201.625 86.1924C201.92 86.3896 202.15 86.6699 202.286 86.9979C202.422 87.3258 202.457 87.6867 202.388 88.0348C202.319 88.3829 202.148 88.7027 201.897 88.9537C201.646 89.2047 201.326 89.3756 200.978 89.4449C200.63 89.5141 200.269 89.4786 199.941 89.3428C199.613 89.2069 199.333 88.9769 199.135 88.6818C198.938 88.3866 198.833 88.0396 198.833 87.6846C198.833 87.2087 199.022 86.7522 199.359 86.4156C199.695 86.079 200.152 85.8899 200.628 85.8899Z" fill="#C17D5B"/>
<path opacity="0.2" d="M83.5883 60.0478L74.3474 60.0478L101.373 88.3338L91.0632 118.214L42 94.5481L42 102.08L70.462 115.006L50.2423 181.138L50.2423 188.537L55.2065 188.537L65.8797 158.509L98.1466 176.189L108.256 134.71L117.688 139.636L103.823 191.028L110.735 191.028L123.769 142.825L147.034 154.958L141.459 174.118L153.739 195.15L161.758 195.15L148.743 173.039L153.077 158.118L195.615 180.313L210.05 180.313L182.231 165.793L188.036 146.042L213.429 146.042L240.644 107.009L240.644 91.4383L209.229 139.359L189.993 139.359L213.286 60.0478L206.317 60.0478L199.339 83.7133L159.482 76.4771L163.797 60L156.895 60L145.239 104.458L107.225 84.7348L83.5883 60.0478ZM93.7075 166.147L67.6649 151.827L76.5622 118.147L102.156 131.512L93.7075 166.147ZM157.783 83.0069L197.477 90.1667L176.189 162.643L137.287 142.347L145.879 134.577L150.652 110.166L157.783 83.0069ZM143.654 111.207L139.75 131.073L130.929 139.025L97.0488 121.345L107.092 92.2478L143.654 111.207Z" fill="#C86839"/>
<path opacity="0.4" d="M71.1016 103.207L89.5548 112.754L97.0487 88.3243L83.0919 74.8447C79.6714 84.5323 75.6673 94.0037 71.1016 103.207Z" fill="#C07650"/>
<path opacity="0.4" d="M101.125 120.181L108.772 97.4984L132.504 108.84L125.106 131.865L101.125 120.181Z" fill="#C07650"/>
<path opacity="0.4" d="M141.983 97.4792C141.344 97.2883 118.681 86.3386 118.681 86.3386L123.731 70.1097L149.363 67.2458L141.983 97.4792Z" fill="#C07650"/>
<path opacity="0.4" d="M177.133 130.701C176.847 130.357 153.63 122.825 153.63 122.825L159.816 87.6847L190.813 93.5366L177.133 130.701Z" fill="#C07650"/>
<path opacity="0.4" d="M163.864 149.612L167.358 139.016L177.134 144.314C177.134 144.314 174.575 155.474 173.821 155.474C173.067 155.474 163.864 149.612 163.864 149.612Z" fill="#C07650"/>
<path opacity="0.4" d="M193.267 149.03C193.897 149.288 212.035 152.963 224.13 155.397L224.13 179.578L189.878 164.696L193.267 149.03Z" fill="#C07650"/>
<path opacity="0.4" d="M215.892 60.0479L224.159 60.0479L224.159 80.019L214.851 108.181C211.032 107.284 207.328 106.272 203.644 105.069L215.892 60.0479Z" fill="#C07650"/>
<path opacity="0.4" d="M202.633 108.668L197.134 128.849L207.052 131.713L213.659 111.732C209.936 110.844 206.251 109.89 202.633 108.668Z" fill="#C07650"/>
<path opacity="0.4" d="M176.179 60.0477L197.315 60.0477L193.267 78.6155L173.258 74.8351L176.179 60.0477Z" fill="#C07650"/>
<path opacity="0.4" d="M135.673 171.168L122.213 165.278L127.043 148.877L141.105 155.474L135.673 171.168Z" fill="#C07650"/>
<path opacity="0.4" d="M88.8481 156.228L74.1943 148.142L80.5618 126.204L96.2084 133.565L88.8481 156.228Z" fill="#C07650"/>
<path opacity="0.4" d="M55.1875 112.391C59.302 114.424 64.5239 117.049 64.858 117.47C65.1921 117.89 58.3187 145.011 55.1875 157.001L55.1875 112.391Z" fill="#C07650"/>
<path opacity="0.4" d="M69.8986 165.287L101.297 180.313L65.9941 180.313L69.8986 165.287Z" fill="#C07650"/>
<path d="M195.176 85.8804L195.176 86.0522C195.132 86.2997 194.992 86.5198 194.786 86.6645C194.581 86.8093 194.327 86.8671 194.079 86.8255L156.38 80.2958C154.967 84.9162 147.788 108.849 143.874 131.99C143.841 132.198 143.741 132.389 143.588 132.534L131.645 143.541C131.502 143.673 131.322 143.759 131.13 143.786C130.937 143.813 130.74 143.781 130.566 143.693L105.975 130.92L96.8293 171.34C96.7961 171.484 96.7299 171.619 96.6358 171.733C96.5418 171.847 96.4224 171.938 96.2873 171.998C96.1521 172.058 96.0048 172.086 95.857 172.08C95.7092 172.073 95.5649 172.032 95.4356 171.96L70.6149 158.366C70.5046 158.304 70.4077 158.22 70.3297 158.12C70.2518 158.02 70.1943 157.905 70.1606 157.783C70.127 157.66 70.1177 157.533 70.1334 157.407C70.1491 157.281 70.1894 157.159 70.2521 157.049C70.3148 156.939 70.3986 156.842 70.4987 156.764C70.5989 156.686 70.7133 156.628 70.8357 156.595C70.958 156.561 71.0858 156.552 71.2117 156.567C71.3376 156.583 71.4592 156.623 71.5695 156.686L95.2828 169.717L104.428 129.326C104.46 129.183 104.524 129.049 104.616 128.935C104.708 128.82 104.825 128.729 104.958 128.667C105.091 128.605 105.236 128.575 105.383 128.578C105.529 128.581 105.673 128.619 105.803 128.687L130.881 141.727L142.06 131.388C146.413 105.727 154.738 79.2266 154.824 78.9593C154.894 78.7405 155.041 78.5544 155.237 78.4352C155.434 78.3159 155.666 78.2715 155.893 78.3101L194.375 84.9448C194.597 84.9809 194.8 85.0947 194.947 85.2659C195.093 85.4372 195.175 85.6549 195.176 85.8804Z" fill="#C17D5B"/>
<path d="M215.186 72.9847C211.305 69.1526 206.045 67 200.56 67C195.075 67 189.815 69.1526 185.934 72.9847C182.131 76.8103 180 81.9594 180 87.3231C180 92.6869 182.131 97.836 185.934 101.662L200.439 116L214.944 101.662C218.779 97.8674 220.954 92.7358 220.999 87.372C221.044 82.0082 218.957 76.8415 215.186 72.9847ZM207.063 93.871C205.777 95.139 204.14 96.0019 202.359 96.3506C200.578 96.6994 198.732 96.5184 197.054 95.8305C195.377 95.1425 193.943 93.9786 192.935 92.4857C191.926 90.9927 191.388 89.2378 191.388 87.4426C191.388 85.6474 191.926 83.8925 192.935 82.3996C193.943 80.9067 195.377 79.7427 197.054 79.0548C198.732 78.3669 200.578 78.1859 202.359 78.5346C204.14 78.8834 205.777 79.7463 207.063 81.0142C207.942 81.8643 208.64 82.8793 209.116 83.9995C209.593 85.1198 209.838 86.3229 209.838 87.5382C209.838 88.7535 209.593 89.9566 209.116 91.0769C208.64 92.1972 207.942 93.2121 207.063 94.0622V93.871Z" fill="#BD6C43"/>
<defs>
<linearGradient id="paint0_linear_1_5484" x1="11.2373" y1="11" x2="393.305" y2="489.629" gradientUnits="userSpaceOnUse">
<stop stop-color="#F3D1C1"/>
<stop offset="1" stop-color="#FFEEE6"/>
</linearGradient>
</defs>
</svg>
