<svg width="134" height="260" viewBox="0 0 134 260" fill="none" xmlns="http://www.w3.org/2000/svg">
<path d="M0 67C0 29.9969 29.9969 0 67 0C104.003 0 134 29.9969 134 67V260H0V67Z" fill="url(#paint0_linear_1_4870)"/>
<path d="M103.875 122.437V80.8239C103.868 80.3655 103.769 79.9132 103.584 79.4937C103.399 79.0741 103.132 78.6958 102.798 78.381L69.6735 48.2786C69.0628 47.72 68.2652 47.4102 67.4375 47.4102C66.6099 47.4102 65.8123 47.72 65.2016 48.2786L32.0766 78.381C31.7355 78.6896 31.4633 79.0667 31.2778 79.4876C31.0923 79.9086 30.9976 80.3639 31 80.8239V122.437" stroke="#FFBB50" stroke-width="3" stroke-linecap="round" stroke-linejoin="round"/>
<path d="M21 122.438H113.75" stroke="#FFBB50" stroke-width="3" stroke-linecap="round" stroke-linejoin="round"/>
<path d="M76.875 122.438V99.25C76.875 98.3715 76.526 97.5289 75.9048 96.9077C75.2836 96.2865 74.441 95.9375 73.5625 95.9375H60.3125C59.434 95.9375 58.5914 96.2865 57.9702 96.9077C57.349 97.5289 57 98.3715 57 99.25V122.438" stroke="#FFBB50" stroke-width="3" stroke-linecap="round" stroke-linejoin="round"/>
<circle cx="69" cy="51" r="26" fill="white"/>
<path d="M85.348 51.1854L81.7114 53L77 43.9712L80.6808 42.1271C80.9543 41.9874 81.2719 41.9617 81.5642 42.0557C81.8566 42.1497 82.1 42.3556 82.2414 42.6287L85.8633 49.5773C85.9367 49.7164 85.9816 49.8688 85.9954 50.0256C86.0092 50.1823 85.9916 50.3403 85.9436 50.4901C85.8956 50.6399 85.8182 50.7786 85.7159 50.898C85.6136 51.0174 85.4885 51.1151 85.348 51.1854V51.1854Z" stroke="#3B3A5D" stroke-width="1.5" stroke-linecap="round" stroke-linejoin="round"/>
<path d="M54.2882 53L50.6513 51.1718C50.5113 51.103 50.3865 51.0068 50.2843 50.8888C50.1822 50.7709 50.1047 50.6335 50.0567 50.485C50.0086 50.3364 49.9908 50.1797 50.0044 50.0241C50.0181 49.8686 50.0628 49.7173 50.1359 49.5794L53.7581 42.6351C53.8998 42.3624 54.1423 42.1559 54.4338 42.0595C54.7253 41.9631 55.0429 41.9845 55.3189 42.1191L59 43.9621L54.2882 53Z" stroke="#3B3A5D" stroke-width="1.5" stroke-linecap="round" stroke-linejoin="round"/>
<path d="M81 53.1528L78.6364 56.0259L73.2 61.6498C73.0518 61.7931 72.8723 61.8972 72.6768 61.9531C72.4813 62.009 72.2756 62.015 72.0773 61.9707L63.5091 59.7548C63.3526 59.7097 63.2067 59.6316 63.0807 59.5256L55 53" stroke="#3B3A5D" stroke-width="1.5" stroke-linecap="round" stroke-linejoin="round"/>
<path d="M79 55L72.6415 50.6L70.7917 51.92C69.9903 52.4891 69.0171 52.7966 68.0171 52.7966C67.0171 52.7966 66.0439 52.4891 65.2425 51.92L64.4621 51.3563C64.3302 51.2608 64.221 51.1398 64.1419 51.0012C64.0628 50.8626 64.0155 50.7095 64.0032 50.5523C63.9909 50.395 64.0139 50.237 64.0706 50.0888C64.1273 49.9406 64.2164 49.8055 64.3321 49.6925L69.9969 44.3163C70.1033 44.2155 70.2296 44.1357 70.3684 44.0814C70.5073 44.0272 70.6561 43.9995 70.8062 44H76.6878" stroke="#3B3A5D" stroke-width="1.5" stroke-linecap="round" stroke-linejoin="round"/>
<path d="M59 43.8659L66.2965 42.0378C66.5558 41.9741 66.833 41.9913 67.0788 42.0865L72 44" stroke="#3B3A5D" stroke-width="1.5" stroke-linecap="round" stroke-linejoin="round"/>
<defs>
<linearGradient id="paint0_linear_1_4870" x1="67" y1="0" x2="67" y2="260" gradientUnits="userSpaceOnUse">
<stop stop-color="#FFE5BB"/>
<stop offset="1" stop-color="white" stop-opacity="0"/>
</linearGradient>
</defs>
</svg>
