<svg width="22" height="18" viewBox="0 0 22 18" fill="none" xmlns="http://www.w3.org/2000/svg">
<path d="M21.7289 2.32631C20.9235 2.67602 20.0713 2.90641 19.1993 3.01021C20.1157 2.47399 20.8049 1.6221 21.1375 0.614324C20.2711 1.12059 19.3248 1.4758 18.3391 1.66476C17.9241 1.23007 17.4249 0.884265 16.8719 0.64836C16.3189 0.412455 15.7237 0.291378 15.1225 0.292488C12.6882 0.292488 10.7182 2.23244 10.7182 4.62386C10.7165 4.9565 10.7547 5.28814 10.8319 5.61172C9.0863 5.52994 7.37705 5.08497 5.81344 4.30527C4.24984 3.52556 2.86632 2.4283 1.75139 1.08367C1.36025 1.74259 1.15339 2.4944 1.15244 3.26053C1.15244 4.76243 1.93658 6.09 3.12062 6.86777C2.41911 6.85113 1.73198 6.6656 1.11755 6.32691V6.38055C1.11755 8.48142 2.63842 10.2292 4.65133 10.627C4.2728 10.7278 3.88274 10.7789 3.491 10.779C3.21303 10.7795 2.93569 10.7525 2.66302 10.6985C3.22261 12.4194 4.85128 13.671 6.78054 13.7068C5.21288 14.9141 3.28819 15.5666 1.309 15.5618C0.957688 15.5613 0.606702 15.5404 0.257812 15.4992C2.27125 16.784 4.61172 17.4636 7.00062 17.4571C15.1131 17.4571 19.5451 10.855 19.5451 5.12896C19.5451 4.94123 19.5402 4.75349 19.5312 4.57022C20.3914 3.95876 21.1356 3.19889 21.7289 2.32631Z" fill="#3B3A5D"/>
</svg>
