<svg width="27" height="20" viewBox="0 0 27 20" fill="none" xmlns="http://www.w3.org/2000/svg">
<path d="M26.3124 4.57022C26.3124 2.34372 24.6314 0.552625 22.5541 0.552625C19.7405 0.424478 16.871 0.375 13.9385 0.375H13.0244C10.099 0.375 7.2244 0.424478 4.41077 0.55312C2.33863 0.55312 0.657558 2.35411 0.657558 4.58062C0.530589 6.34153 0.476754 8.10294 0.479801 9.86435C0.474722 11.6258 0.532282 13.3888 0.652479 15.1535C0.652479 17.38 2.33355 19.186 4.40569 19.186C7.36153 19.3196 10.3936 19.3789 13.4764 19.374C16.5643 19.3839 19.5878 19.3212 22.547 19.186C24.6243 19.186 26.3053 17.38 26.3053 15.1535C26.4272 13.3872 26.4831 11.6258 26.478 9.8594C26.4895 8.09799 26.4343 6.33493 26.3124 4.57022ZM10.9928 14.7181V4.99573L18.3571 9.85446L10.9928 14.7181Z" fill="#3B3A5D"/>
</svg>
